<svg width="573" height="382" viewBox="0 0 573 382" fill="none" xmlns="http://www.w3.org/2000/svg">
<path d="M37.6726 106.005C35.4876 89.3881 50.0112 72.5266 66.7887 72.2363C74.8183 72.0987 82.9855 75.1777 90.7324 73.0537C107.388 68.4697 110.298 44.503 125.25 35.8469C135.587 29.8648 149.629 33.3181 157.957 41.8749C166.284 50.4317 169.531 62.9384 169.241 74.8721C168.477 105.035 144.946 133.119 115.371 139.086C85.797 145.053 41.7906 134.67 37.6039 105.356" fill="#EBEBEB"/>
<path d="M232.013 43.285C233.923 31.408 225.844 20.2308 213.967 18.3199C202.091 16.409 190.913 24.4881 189.002 36.365C187.092 48.242 195.171 59.4192 207.048 61.3301C218.924 63.241 230.102 55.1619 232.013 43.285Z" fill="#EBEBEB"/>
<path d="M533.455 120.406C532.975 120.285 532.488 120.195 531.996 120.139C531.073 120.031 530.14 120.049 529.223 120.192C519.184 120.895 509.771 129.169 508.641 139.292C507.342 151.02 517.404 162.755 529.192 163.267C540.981 163.779 552.02 152.96 551.745 141.164C551.516 131.163 543.204 122.24 533.455 120.406Z" fill="#EBEBEB"/>
<path d="M559.08 353.358C559.08 353.472 442.417 353.556 298.556 353.556C154.695 353.556 38.0317 353.472 38.0317 353.358C38.0317 353.243 154.672 353.159 298.594 353.159C442.516 353.159 559.08 353.251 559.08 353.358Z" fill="#263238"/>
<path d="M246.428 321.369C247.239 321.559 248.004 321.91 248.676 322.403C249.348 322.895 249.914 323.518 250.34 324.234C251.187 325.671 251.691 327.284 251.814 328.948C252.15 332.149 251.05 335.694 249.706 338.605C246.573 336.886 245.122 333.02 244.457 331.011C243.464 327.833 243.594 321.484 246.428 321.369Z" fill="#FE0000"/>
<path d="M253.893 343.09C253.518 342.236 253.375 341.298 253.478 340.371C253.581 339.444 253.927 338.561 254.481 337.81C255.049 337.072 255.759 336.454 256.568 335.992C257.377 335.531 258.27 335.235 259.195 335.121C259.614 335.022 260.049 335.017 260.47 335.106C260.891 335.194 261.288 335.374 261.632 335.633C261.908 335.926 262.102 336.286 262.194 336.678C262.287 337.069 262.275 337.478 262.159 337.864C261.907 338.63 261.459 339.317 260.86 339.858C258.897 341.783 256.643 343.296 253.893 343.09Z" fill="#FE0000"/>
<path d="M252.632 353.396C252.591 353.179 252.573 352.959 252.578 352.739C252.578 352.265 252.54 351.661 252.517 350.936C252.387 348.939 252.581 346.934 253.09 344.999C253.635 343.058 254.69 341.298 256.146 339.904C256.589 339.491 257.079 339.132 257.605 338.834C257.747 338.749 257.896 338.675 258.049 338.612C258.148 338.567 258.201 338.544 258.209 338.551C257.509 338.976 256.854 339.47 256.253 340.026C254.866 341.433 253.857 343.167 253.319 345.068C252.817 346.981 252.606 348.959 252.693 350.936C252.693 351.7 252.693 352.311 252.693 352.739C252.694 352.959 252.673 353.179 252.632 353.396Z" fill="#263238"/>
<path d="M246.772 326.229C246.813 326.314 246.844 326.404 246.864 326.496C246.925 326.702 246.994 326.97 247.085 327.26C247.276 327.955 247.544 328.956 247.849 330.201C248.484 332.684 249.309 336.122 250.141 339.95C250.974 343.778 251.631 347.246 252.082 349.775C252.304 351.036 252.479 352.067 252.586 352.762C252.64 353.098 252.678 353.373 252.708 353.58C252.715 353.676 252.715 353.773 252.708 353.87C252.672 353.779 252.646 353.684 252.632 353.587C252.586 353.381 252.533 353.114 252.464 352.778C252.326 352.052 252.128 351.036 251.891 349.806C251.402 347.292 250.707 343.816 249.889 339.996C249.072 336.176 248.262 332.73 247.674 330.24C247.383 329.009 247.147 328.009 246.978 327.283L246.795 326.519C246.777 326.423 246.769 326.326 246.772 326.229Z" fill="#263238"/>
<path d="M249.767 345.985C249.032 344.163 247.874 342.542 246.389 341.256C244.904 339.97 243.134 339.056 241.225 338.59C240.255 338.361 239.048 338.338 238.467 339.155C237.887 339.973 238.314 341.103 238.865 341.936C240.051 343.652 241.719 344.978 243.657 345.748C245.596 346.517 247.719 346.696 249.759 346.261" fill="#FE0000"/>
<path d="M242.302 341.462C242.51 341.478 242.715 341.516 242.914 341.577C243.151 341.63 243.386 341.697 243.617 341.775C243.892 341.874 244.205 341.951 244.533 342.104C244.899 342.247 245.256 342.41 245.603 342.593C246.005 342.794 246.396 343.018 246.772 343.265C247.639 343.831 248.439 344.495 249.156 345.244C249.861 346.003 250.477 346.841 250.989 347.742C251.208 348.135 251.405 348.541 251.577 348.957C251.734 349.316 251.872 349.683 251.99 350.057C252.088 350.366 252.17 350.679 252.234 350.997C252.299 351.232 252.345 351.472 252.372 351.715C252.416 351.918 252.439 352.126 252.441 352.334C252.387 352.334 252.288 351.455 251.83 350.11C251.707 349.744 251.564 349.384 251.402 349.033C251.225 348.626 251.023 348.231 250.798 347.849C250.288 346.969 249.681 346.148 248.987 345.404C248.296 344.672 247.527 344.016 246.695 343.448C246.326 343.199 245.943 342.97 245.549 342.761C245.19 342.554 244.831 342.402 244.51 342.256C243.158 341.691 242.287 341.508 242.302 341.462Z" fill="#263238"/>
<path d="M489.724 345.329C490.014 344.213 489.281 343.09 488.456 342.273C487.631 341.455 486.645 340.745 486.217 339.66C485.522 337.918 486.454 335.664 485.27 334.212C484.575 333.357 483.329 333.066 482.711 332.157C482.424 331.652 482.235 331.097 482.153 330.522C481.493 327.63 480.068 324.967 478.027 322.813C477.894 325.392 478.453 327.958 479.647 330.247C480.207 331.126 480.618 332.091 480.862 333.105C481.121 334.762 480.197 336.466 480.602 338.093C481.068 339.95 483.154 341.195 483.253 343.105C483.337 344.725 481.924 346.161 482.031 347.766C482.117 348.452 482.363 349.109 482.749 349.683C483.305 350.753 484.151 351.644 485.19 352.256C486.229 352.868 487.419 353.176 488.624 353.144L492.039 353.267L489.724 345.329Z" fill="#FE0000"/>
<g opacity="0.3">
<path opacity="0.3" d="M489.724 345.329C490.014 344.213 489.281 343.09 488.456 342.273C487.631 341.455 486.645 340.745 486.217 339.66C485.522 337.918 486.454 335.664 485.27 334.212C484.575 333.357 483.329 333.066 482.711 332.157C482.424 331.652 482.235 331.097 482.153 330.522C481.493 327.63 480.068 324.967 478.027 322.813C477.894 325.392 478.453 327.958 479.647 330.247C480.207 331.126 480.618 332.091 480.862 333.105C481.121 334.762 480.197 336.466 480.602 338.093C481.068 339.95 483.154 341.195 483.253 343.105C483.337 344.725 481.924 346.161 482.031 347.766C482.117 348.452 482.363 349.109 482.749 349.683C483.305 350.753 484.151 351.644 485.19 352.256C486.229 352.868 487.419 353.176 488.624 353.144L492.039 353.267L489.724 345.329Z" fill="black"/>
</g>
<path d="M492.727 353.342C493.037 353.398 493.356 353.398 493.666 353.342C494.044 353.287 494.415 353.195 494.774 353.067C495.269 352.89 495.731 352.632 496.142 352.303C496.392 352.101 496.587 351.838 496.707 351.539C496.808 351.21 496.862 350.868 496.868 350.523C496.873 350.153 496.901 349.783 496.952 349.415C497.014 349.027 497.154 348.655 497.364 348.323C497.916 347.618 498.349 346.829 498.648 345.985C498.814 344.993 498.783 343.978 498.556 342.998C498.309 341.939 498.338 340.834 498.64 339.789C499.007 338.727 499.748 337.757 500.122 336.557C500.497 335.358 500.321 334.036 500.405 332.737C500.427 332.083 500.578 331.439 500.848 330.843C501.123 330.239 501.505 329.674 501.803 329.039C502.324 327.707 502.621 326.297 502.682 324.868C502.766 324.15 502.85 323.424 502.926 322.691C502.976 321.951 503.104 321.219 503.308 320.506C503.535 319.786 503.808 319.081 504.126 318.397C504.284 318.038 504.417 317.667 504.523 317.289C504.584 316.892 504.607 316.525 504.63 316.12C504.668 315.332 504.637 314.542 504.538 313.759C504.446 312.995 504.301 312.186 504.217 311.399V311.261V311.108L504.08 311.177C503.357 311.538 502.726 312.061 502.239 312.705C501.767 313.341 501.389 314.041 501.115 314.783C500.625 316.237 500.269 317.733 500.053 319.253C499.835 320.701 499.359 322.098 498.648 323.378C498.273 323.982 497.823 324.54 497.425 325.128C497.002 325.706 496.712 326.372 496.577 327.076C496.379 328.52 497.173 329.788 497.005 331.064C496.931 331.693 496.72 332.298 496.386 332.837C496.073 333.379 495.714 333.883 495.362 334.365C495.01 334.859 494.706 335.386 494.453 335.938C494.21 336.478 494.068 337.058 494.033 337.65C493.949 338.796 494.11 339.888 494.033 340.92C493.94 341.9 493.654 342.853 493.193 343.724C492.78 344.564 492.322 345.32 491.94 346.016C491.748 346.37 491.574 346.735 491.42 347.108C491.283 347.456 491.183 347.817 491.122 348.185C491.028 348.831 491.028 349.488 491.122 350.133C491.216 351.035 491.554 351.894 492.1 352.616C492.186 352.721 492.278 352.82 492.375 352.914C492.445 352.985 492.522 353.049 492.604 353.105L492.795 353.243C492.555 353.047 492.335 352.827 492.138 352.586C491.607 351.864 491.285 351.011 491.206 350.118C491.131 349.48 491.147 348.834 491.252 348.201C491.32 347.84 491.422 347.487 491.558 347.146C491.712 346.781 491.886 346.424 492.077 346.077C492.459 345.313 492.925 344.594 493.346 343.746C493.82 342.863 494.116 341.895 494.216 340.897C494.308 339.842 494.148 338.742 494.216 337.619C494.253 337.049 494.393 336.49 494.629 335.969C494.88 335.432 495.182 334.92 495.531 334.441C495.874 333.937 496.241 333.432 496.562 332.875C496.911 332.316 497.132 331.687 497.211 331.034C497.379 329.666 496.593 328.39 496.791 327.053C496.926 326.379 497.208 325.742 497.616 325.189C497.998 324.608 498.457 324.058 498.839 323.432C499.569 322.133 500.056 320.711 500.275 319.237C500.495 317.732 500.848 316.249 501.329 314.806C501.6 314.083 501.97 313.402 502.43 312.782C502.892 312.157 503.494 311.65 504.187 311.299L504.034 311.208V311.345C504.118 312.147 504.263 312.927 504.355 313.706C504.446 314.466 504.474 315.233 504.439 315.998C504.429 316.379 504.396 316.759 504.34 317.136C504.241 317.502 504.113 317.86 503.958 318.206C503.636 318.898 503.361 319.61 503.132 320.338C502.928 321.061 502.8 321.803 502.75 322.553C502.666 323.317 502.582 324.02 502.506 324.738C502.447 326.143 502.158 327.529 501.65 328.841C501.368 329.46 500.986 330.033 500.695 330.659C500.419 331.278 500.266 331.945 500.244 332.623C500.168 333.937 500.336 335.228 499.985 336.389C499.633 337.55 498.885 338.521 498.51 339.621C498.203 340.691 498.177 341.823 498.434 342.906C498.66 343.867 498.699 344.864 498.548 345.84C498.252 346.666 497.827 347.439 497.288 348.132C497.073 348.479 496.93 348.866 496.868 349.27C496.821 349.64 496.795 350.013 496.791 350.386C496.792 350.722 496.743 351.057 496.646 351.379C496.531 351.658 496.35 351.904 496.119 352.097C495.718 352.424 495.267 352.682 494.782 352.861C494.428 352.993 494.062 353.091 493.689 353.151C493.461 353.198 493.228 353.221 492.994 353.22L492.727 353.342Z" fill="#263238"/>
<path d="M503.476 313.148C503.474 313.184 503.474 313.22 503.476 313.255L503.4 313.561C503.331 313.828 503.255 314.233 503.125 314.745C502.995 315.257 502.682 315.815 502.414 316.525C502.102 317.315 501.831 318.121 501.604 318.94C501.345 319.856 501.115 320.865 500.84 321.942C500.636 323.101 500.268 324.225 499.748 325.281C499.473 325.831 499.152 326.396 498.907 327.007C498.66 327.636 498.493 328.293 498.411 328.963C498.23 330.351 497.975 331.728 497.647 333.089C496.967 335.885 496.31 338.551 495.722 340.973C495.133 343.395 494.56 345.557 494.102 347.406C493.643 349.255 493.284 350.699 493.032 351.746C492.91 352.242 492.818 352.64 492.75 352.922L492.681 353.235C492.677 353.271 492.677 353.307 492.681 353.342C492.681 353.342 492.681 353.304 492.719 353.235L492.811 352.938C492.887 352.647 492.994 352.258 493.132 351.761C493.399 350.722 493.789 349.255 494.27 347.444C494.751 345.634 495.301 343.433 495.928 341.027C496.554 338.62 497.188 335.939 497.876 333.142C498.203 331.774 498.458 330.389 498.64 328.994C498.721 328.34 498.88 327.699 499.114 327.084C499.358 326.488 499.664 325.93 499.946 325.365C500.464 324.295 500.829 323.159 501.031 321.988C501.268 320.903 501.49 319.895 501.734 318.985C501.979 318.076 502.254 317.266 502.498 316.564C502.743 315.861 503.048 315.288 503.171 314.76C503.293 314.233 503.354 313.844 503.407 313.569L503.476 313.24C503.476 313.187 503.476 313.148 503.476 313.148Z" fill="#263238"/>
<path d="M493.33 353.35C495.561 352.028 496.195 348.002 495.271 345.588C494.346 343.174 492.711 340.958 492.459 338.376C492.268 336.389 492.918 334.357 492.459 332.417C491.84 329.804 489.289 327.779 489.311 325.09C489.311 323.562 490.19 322.156 490.121 320.651C490.037 318.802 488.593 317.335 487.738 315.708C486.393 313.21 486.309 310.268 485.843 307.472C485.377 304.676 484.315 301.681 481.84 300.306C481.481 302.682 480.854 304.309 481.076 307.518C481.152 308.679 482.489 310.887 482.672 313.416C482.779 314.944 482.856 316.472 482.947 317.954C482.966 319.434 483.208 320.902 483.666 322.309C484.07 323.363 484.72 324.326 485.018 325.411C485.583 327.466 484.842 329.689 485.301 331.767C485.683 333.524 486.905 335.037 487.149 336.825C487.501 339.331 485.881 341.936 486.706 344.327C487.119 345.519 488.097 346.474 488.372 347.697C488.593 348.652 488.372 349.652 488.548 350.607C488.861 352.135 491.802 353.343 493.368 353.251" fill="#FE0000"/>
<path d="M482.451 302.666C482.451 302.666 482.451 302.712 482.451 302.796L482.504 303.186C482.55 303.529 482.611 304.034 482.726 304.714C482.84 305.393 483.184 306.104 483.49 307.006C483.795 307.907 484.055 308.916 484.307 310.062C484.559 311.208 484.773 312.468 484.995 313.828C485.172 315.296 485.558 316.732 486.141 318.091C486.446 318.809 486.798 319.52 487.065 320.276C487.32 321.059 487.477 321.87 487.531 322.69C487.658 324.43 487.877 326.162 488.188 327.878C488.868 331.392 489.518 334.754 490.114 337.81C490.71 340.866 491.298 343.578 491.771 345.886C492.245 348.193 492.635 350.026 492.91 351.325C493.04 351.952 493.147 352.448 493.223 352.8L493.315 353.182L493.353 353.312C493.356 353.268 493.356 353.225 493.353 353.182L493.284 352.792C493.215 352.441 493.124 351.936 493.009 351.302C492.749 350.003 492.383 348.147 491.94 345.855C491.496 343.563 490.893 340.744 490.289 337.688C489.686 334.632 489.059 331.293 488.379 327.756C488.071 326.044 487.852 324.318 487.722 322.584C487.664 321.747 487.502 320.92 487.241 320.123C486.966 319.359 486.615 318.634 486.301 317.931C485.724 316.585 485.336 315.166 485.148 313.713C484.918 312.354 484.697 311.085 484.429 309.939C484.198 308.907 483.915 307.887 483.581 306.883C483.299 305.997 482.947 305.264 482.817 304.591C482.688 303.919 482.619 303.438 482.55 303.102C482.55 302.941 482.497 302.819 482.481 302.72C482.472 302.701 482.462 302.683 482.451 302.666Z" fill="#263238"/>
<path d="M428.268 252.525H88.998V286.432H428.268V252.525Z" fill="#FE0000"/>
<g opacity="0.4">
<path opacity="0.4" d="M428.268 252.525H88.998V286.432H428.268V252.525Z" fill="black"/>
</g>
<path d="M354.763 290.71H254.618V322.11H354.763V290.71Z" fill="#455A64"/>
<path d="M184.636 276.508V318.016H218.832L232.539 298.152H482.221V276.508H184.636Z" fill="#263238"/>
<path d="M182.504 145.069C182.466 144.401 182.168 143.775 181.674 143.325C181.18 142.875 180.528 142.637 179.86 142.662C166.345 143.22 102.185 146.161 88.9903 152.502C78.8902 157.361 67.8275 175.499 60.0271 187.715C54.4346 196.47 42.0807 215.907 39.5824 225.846C37.4661 234.25 36.1903 251.731 36.3354 260.402L39.8651 306.288H98.0131L103.835 291.13C105.693 286.302 108.97 282.15 113.235 279.222C117.5 276.293 122.552 274.726 127.725 274.727H185.506V198.579L182.504 145.069Z" fill="#FE0000"/>
<path d="M82.0993 157.583C74.0926 165.223 66.0553 178.211 60.0273 187.715C54.8474 195.821 43.8764 213.08 40.2932 223.486C40.2245 223.677 40.171 223.86 40.1099 224.051C41.8823 223.562 44.6098 222.561 45.4579 220.88C46.7337 218.336 48.3687 209.619 68.5841 176.714C74.7267 166.682 80.7165 160.815 82.0993 157.583Z" fill="#455A64"/>
<path d="M152.632 154.183C137.764 155.031 105.531 157.239 95.2325 160.738C81.8167 165.322 66.7582 200.841 66.0477 202.399L55.9018 228.375C55.8449 228.545 55.8292 228.726 55.8559 228.903C55.8826 229.08 55.951 229.248 56.0555 229.394C56.1599 229.539 56.2974 229.658 56.4567 229.74C56.6159 229.822 56.7923 229.865 56.9714 229.865H83.1995C84.1929 229.865 85.1784 229.689 86.1104 229.346L155.092 203.629C156.615 203.061 157.928 202.041 158.855 200.705C159.782 199.37 160.279 197.783 160.279 196.157V161.418C160.28 160.433 160.079 159.457 159.69 158.552C159.3 157.647 158.73 156.831 158.014 156.153C157.298 155.476 156.452 154.952 155.526 154.613C154.601 154.274 153.616 154.128 152.632 154.183Z" fill="#263238"/>
<path d="M58.8276 227.313C58.8276 227.313 68.5457 205.517 71.8156 198.373C76.7511 187.585 88.2798 165.521 96.065 163.145C103.224 160.998 123.806 158.385 152.777 156.728H153.052C154.296 156.732 155.488 157.228 156.367 158.109C157.246 158.989 157.741 160.182 157.743 161.426V196.952C157.74 197.828 157.471 198.682 156.972 199.401C156.472 200.12 155.766 200.67 154.946 200.978L103.98 207.266C101.937 207.518 99.9733 208.212 98.2253 209.299C96.4772 210.386 94.9866 211.841 93.857 213.561L85.0252 227.031C84.5068 227.223 83.9583 227.321 83.4055 227.321L58.8276 227.313Z" fill="#455A64"/>
<path d="M102.131 207.656L84.8037 226.955L94.3919 162.878L96.7909 162.053L92.0694 209.52C92.0471 209.758 92.0864 209.998 92.1835 210.217C92.2806 210.436 92.4323 210.626 92.624 210.77C92.8157 210.913 93.041 211.005 93.2783 211.036C93.5156 211.068 93.757 211.037 93.9794 210.949L102.131 207.656Z" fill="#263238"/>
<path d="M35.1973 264.856C35.1361 264.024 35.4188 263.328 35.8467 263.328L45.1369 262.473C45.9009 262.396 46.6114 263.84 46.7031 265.529L47.1233 272.657C47.1921 273.803 46.8483 274.773 46.3593 274.857L36.8857 276.492C36.4579 276.568 36.0453 275.934 35.9842 275.094L35.1973 264.856Z" fill="#EBEBEB"/>
<path d="M102.131 298.159H35.1895V324.999H102.131V298.159Z" fill="#263238"/>
<path d="M146.817 353.032C167.03 352.255 182.787 335.24 182.01 315.026C181.234 294.813 164.218 279.057 144.005 279.833C123.792 280.61 108.035 297.625 108.812 317.838C109.588 338.052 126.604 353.808 146.817 353.032Z" fill="#263238"/>
<path d="M108.816 315.8C108.82 315.833 108.82 315.866 108.816 315.899C108.688 325.605 112.418 334.964 119.186 341.921C125.954 348.879 135.207 352.865 144.912 353.005C154.617 353.145 163.981 349.426 170.947 342.666C177.912 335.907 181.91 326.659 182.061 316.953C182.061 316.953 182.061 316.892 182.061 316.862L108.816 315.8Z" fill="#263238"/>
<path d="M119.719 316.052C119.644 321.138 121.079 326.132 123.842 330.402C126.606 334.673 130.573 338.028 135.244 340.043C139.914 342.058 145.077 342.643 150.08 341.724C155.083 340.804 159.701 338.422 163.35 334.878C166.998 331.334 169.514 326.788 170.579 321.814C171.643 316.84 171.209 311.662 169.331 306.935C167.452 302.208 164.214 298.144 160.026 295.257C155.838 292.37 150.888 290.791 145.802 290.718C138.984 290.62 132.406 293.233 127.515 297.984C122.623 302.735 119.819 309.234 119.719 316.052Z" fill="#FAFAFA"/>
<path d="M145.802 290.718C138.984 290.62 132.406 293.233 127.515 297.984C122.624 302.735 119.819 309.234 119.719 316.052L171.144 316.816C171.244 309.994 168.63 303.413 163.877 298.518C159.125 293.624 152.623 290.818 145.802 290.718Z" fill="#E0E0E0"/>
<path d="M129.773 316.197C129.728 319.295 130.602 322.336 132.286 324.936C133.969 327.537 136.386 329.58 139.231 330.806C142.075 332.033 145.22 332.389 148.267 331.828C151.313 331.268 154.125 329.816 156.347 327.658C158.569 325.499 160.101 322.73 160.749 319.7C161.396 316.671 161.132 313.518 159.987 310.639C158.843 307.76 156.87 305.286 154.319 303.528C151.769 301.77 148.754 300.808 145.656 300.764C141.504 300.705 137.497 302.298 134.519 305.192C131.54 308.086 129.833 312.044 129.773 316.197Z" fill="#263238"/>
<path d="M74.3906 177.447H71.4034C68.0362 177.447 65.3066 180.177 65.3066 183.544V207.786C65.3066 211.153 68.0362 213.882 71.4034 213.882H74.3906C77.7577 213.882 80.4873 211.153 80.4873 207.786V183.544C80.4873 180.177 77.7577 177.447 74.3906 177.447Z" fill="#263238"/>
<path d="M59.0267 236.405H58.2627V197.877C58.2647 196.04 58.9954 194.278 60.2945 192.979C61.5936 191.68 63.355 190.949 65.1922 190.947H67.0258V191.711H65.1922C63.5576 191.713 61.9906 192.364 60.8348 193.519C59.6789 194.675 59.0287 196.242 59.0267 197.877V236.405Z" fill="#263238"/>
<path d="M64.2294 236.45L62.1055 200.428C62.0756 199.812 62.1704 199.196 62.384 198.618C62.5976 198.039 62.9257 197.51 63.3487 197.061C63.7717 196.613 64.2808 196.254 64.8456 196.007C65.4105 195.759 66.0194 195.629 66.636 195.622V196.386C66.1218 196.386 65.6131 196.491 65.141 196.695C64.6689 196.899 64.2435 197.197 63.8908 197.571C63.5381 197.946 63.2656 198.388 63.0899 198.871C62.9143 199.354 62.8393 199.868 62.8695 200.382L64.9934 236.412L64.2294 236.45Z" fill="#263238"/>
<path d="M66.6361 232.937H56.3374V244.863H66.6361V232.937Z" fill="#263238"/>
<path d="M62.8313 210.299H58.6445V211.063H62.8313V210.299Z" fill="#263238"/>
<path d="M97.7917 155.214L98.7009 155.092L101.383 154.779L111.773 153.58L150.508 149.171C152.571 148.95 154.672 148.675 156.849 148.484C157.961 148.399 159.08 148.471 160.172 148.698C161.283 148.957 162.354 149.363 163.358 149.905C165.429 151.057 167.108 152.802 168.179 154.917C168.733 155.997 169.107 157.161 169.287 158.362C169.383 158.969 169.437 159.582 169.447 160.196V162.037C169.447 171.9 169.447 182.489 169.447 193.712C169.447 216.159 169.447 241.126 169.447 267.82V268.019H129.207C126.91 267.944 124.611 268.053 122.331 268.348C117.629 269.024 113.193 270.944 109.481 273.908C105.769 276.872 102.915 280.773 101.214 285.209C100.884 286.023 100.606 286.858 100.382 287.707C100.133 288.548 99.9369 289.402 99.7934 290.267L99.5948 291.566L99.5031 292.215L99.4649 292.864L99.4038 294.171V294.828V294.904C99.5718 294.736 99.1669 295.164 99.1975 295.118H48.1699V294.904C48.1699 283.391 48.1699 272.29 48.1699 261.686C48.1699 256.383 48.1699 251.206 48.1699 246.153V238.681C48.1699 237.451 48.1699 236.237 48.1699 235.022C48.1948 233.814 48.2815 232.608 48.4297 231.408C49.0123 226.786 50.4805 222.319 52.7539 218.252C54.8575 214.295 56.8948 210.475 58.8659 206.792L69.6994 186.493L78.4931 170.013C79.1348 168.816 79.7511 167.657 80.342 166.537C80.6476 165.987 80.915 165.429 81.2358 164.91C81.5522 164.402 81.8965 163.912 82.2672 163.443C83.5922 161.791 85.152 160.341 86.8971 159.141C89.3005 157.51 91.9875 156.341 94.8198 155.696C95.7921 155.463 96.7804 155.302 97.7765 155.214L97.0124 155.329C96.5159 155.405 95.7824 155.535 94.8198 155.757C92.0042 156.423 89.3361 157.604 86.9506 159.241C85.2202 160.442 83.6757 161.892 82.3666 163.542C81.9967 164.003 81.6573 164.488 81.3504 164.994C81.0372 165.498 80.7698 166.063 80.4642 166.621L78.623 170.105L69.9057 186.6C66.6358 192.757 63.0297 199.549 59.1333 206.914L53.0213 218.374C50.7689 222.41 49.3187 226.844 48.7506 231.431C48.605 232.62 48.5208 233.816 48.4984 235.014C48.4984 236.214 48.4984 237.444 48.4984 238.666V246.138C48.4984 251.186 48.4984 256.363 48.4984 261.67C48.4984 272.275 48.4984 283.376 48.4984 294.889L48.3074 294.706H99.1364C99.1898 294.667 98.7696 295.072 98.9454 294.889V294.805V294.148L99.0141 292.819V292.161L99.1134 291.504L99.3121 290.183C99.4572 289.305 99.6563 288.438 99.908 287.585C100.137 286.723 100.42 285.875 100.756 285.049C102.484 280.548 105.38 276.59 109.147 273.582C112.914 270.574 117.415 268.624 122.186 267.935C124.466 267.645 126.765 267.535 129.062 267.607H169.119L168.92 267.798C168.92 241.134 168.92 216.166 168.92 193.69C168.92 182.466 168.92 171.877 168.92 162.014C168.97 160.802 168.919 159.588 168.767 158.385C168.594 157.211 168.23 156.073 167.69 155.016C166.653 152.949 165.015 151.245 162.991 150.126C162.016 149.592 160.973 149.194 159.89 148.942C158.823 148.717 157.73 148.642 156.643 148.72C154.481 148.904 152.364 149.179 150.309 149.4L111.582 153.686L101.184 154.825L98.5022 155.108L97.7917 155.214Z" fill="#263238"/>
<path d="M157.254 239.652C157.254 239.652 157.468 239.652 157.85 239.56C158.411 239.46 158.947 239.247 159.424 238.934C160.175 238.441 160.738 237.709 161.02 236.856C161.193 236.324 161.263 235.764 161.227 235.205C161.21 234.587 161.051 233.98 160.761 233.433C160.428 232.807 159.934 232.282 159.329 231.912C158.724 231.543 158.031 231.342 157.323 231.332H152.28H140.728C139.767 231.333 138.839 231.688 138.122 232.329C137.405 232.97 136.948 233.853 136.84 234.808C136.72 235.716 136.888 236.638 137.321 237.444C137.75 238.207 138.423 238.804 139.231 239.14C140.03 239.418 140.879 239.522 141.722 239.446H144.166H148.559L154.924 239.507H156.658C156.858 239.503 157.057 239.518 157.254 239.553C157.056 239.577 156.857 239.589 156.658 239.591H154.924L148.559 239.652H144.166H141.722C141.294 239.652 140.881 239.652 140.431 239.652C139.972 239.618 139.521 239.515 139.094 239.346C138.21 238.98 137.473 238.329 137 237.497C136.526 236.622 136.339 235.62 136.465 234.632C136.583 233.584 137.083 232.615 137.869 231.91C138.655 231.206 139.673 230.815 140.728 230.812H152.28H157.323C158.425 230.834 159.475 231.284 160.251 232.067C161.027 232.85 161.467 233.905 161.479 235.007C161.503 235.591 161.417 236.174 161.227 236.726C160.912 237.613 160.306 238.367 159.508 238.865C159.009 239.175 158.448 239.371 157.865 239.438C157.671 239.534 157.466 239.606 157.254 239.652Z" fill="#263238"/>
<path d="M155.856 230.056C153.679 230.248 151.492 230.312 149.308 230.247C147.121 230.312 144.932 230.248 142.753 230.056C144.932 229.86 147.121 229.793 149.308 229.858C151.493 229.794 153.679 229.86 155.856 230.056Z" fill="white"/>
<path d="M105.18 325.22L99.0679 324.777C100.665 302.888 103.002 289.793 106.219 284.743C112.392 275.04 118.527 273.283 125.319 272.13C131.645 271.052 138.024 271.304 144.197 271.557L145.725 271.618C158.469 272.114 185.163 271.671 185.453 271.671L185.553 277.783C185.285 277.783 158.423 278.234 145.511 277.73L143.983 277.669C138.124 277.439 132.073 277.187 126.373 278.165C120.299 279.197 116.258 280.381 111.384 288.036C109.909 290.32 107.143 298.258 105.18 325.22Z" fill="#263238"/>
<path d="M489.709 75.8809H188.708V276.293H489.709V75.8809Z" fill="#FE0000"/>
<path d="M486.102 272.328C486.102 271.037 486.041 197.533 485.942 80.4117L486.102 80.5645L191.962 80.6103L192.161 80.4117C192.161 148.629 192.161 213.562 192.161 272.328L191.978 272.145L486.118 272.328L191.978 272.512H191.764V272.328C191.764 213.562 191.764 148.629 191.764 80.4117V80.2207H191.985L486.125 80.2589H486.286V80.4193C486.163 197.533 486.102 271.045 486.102 272.328Z" fill="#263238"/>
<g opacity="0.5">
<path opacity="0.5" d="M224.41 181.457L227.252 238.78L450.485 192.344L446.535 132.592L224.41 181.457Z" fill="black"/>
</g>
<path d="M241.325 221.156L242.853 215.808C245.841 217.093 249.157 217.409 252.334 216.709C255.749 215.945 257.682 214.325 257.231 212.362C256.307 208.061 243.479 213.225 241.623 204.653C240.438 199.122 244.511 194.507 251.967 192.91C255.581 192.146 259.095 192.223 261.762 193.216L260.425 198.465C257.949 197.534 255.254 197.356 252.678 197.953C249.064 198.717 247.246 200.566 247.658 202.491C248.575 206.915 261.448 201.727 263.229 210.001C264.42 215.578 260.272 220.208 252.777 221.813C248.407 222.76 243.976 222.34 241.325 221.156Z" fill="white"/>
<path d="M292.115 184.751L292.505 212.805L286.278 214.142L286.118 202.72L273.932 205.333L274.1 216.793L267.828 218.1L267.438 190.038L273.703 188.693L273.856 199.718L286.041 197.105L285.889 186.08L292.115 184.751Z" fill="white"/>
<path d="M298.487 183.384L304.736 182.039L305.126 210.093L298.861 211.438L298.487 183.384Z" fill="white"/>
<path d="M334.303 184.483C335.77 191.321 331.652 196.707 323.607 198.395L317.61 199.679L317.724 207.403L311.459 208.747L311.093 180.663L321.972 178.371C328.695 176.896 333.172 179.196 334.303 184.483ZM328.115 186.37C327.557 183.757 325.448 182.924 322.293 183.604L317.411 184.651L317.533 194.392L322.797 193.261C326.892 192.36 328.879 189.922 328.115 186.347V186.37Z" fill="white"/>
<path d="M362.036 178.501C363.503 185.377 359.385 190.725 351.34 192.414L345.351 193.705L345.48 201.429L339.216 202.773L338.818 174.719L349.698 172.381C356.444 170.938 360.921 173.237 362.036 178.501ZM355.848 180.396C355.29 177.775 353.174 176.943 350.026 177.623L345.144 178.669L345.267 188.418L350.53 187.287C354.656 186.401 356.627 183.964 355.863 180.396H355.848Z" fill="white"/>
<path d="M366.621 168.76L372.885 167.415L373.283 195.477L367.018 196.821L366.621 168.76Z" fill="white"/>
<path d="M403.873 160.799L404.27 188.853L399.151 189.953L385.514 175.238L385.743 192.81L379.631 194.132L379.234 166.07L384.383 164.963L398.036 179.685L397.761 162.113L403.873 160.799Z" fill="white"/>
<path d="M428.65 169.074L434.342 167.851L434.487 179.395C431.964 182.209 428.597 184.131 424.891 184.873C416.739 186.623 410.574 183.001 409.084 176.049C407.113 166.881 412.346 158.477 422.53 156.277C427.68 155.169 431.797 156.009 434.754 158.569L431.072 163.153C428.78 161.388 426.396 161.021 423.432 161.663C417.129 163.015 414.065 168.417 415.333 174.338C416.197 178.372 419.474 180.526 424.585 179.426C426.129 179.111 427.582 178.456 428.841 177.508L428.65 169.074Z" fill="white"/>
<path d="M410.718 128.421L455.771 117.87L453.991 113.072L410.718 128.421Z" fill="#FAFAFA"/>
<path d="M275.127 240.964L230.831 254.347L229.971 249.312L275.127 240.964Z" fill="#FAFAFA"/>
<path d="M268.576 173.459C268.576 173.566 258.262 175.751 245.488 178.318C232.714 180.885 222.347 182.902 222.324 182.795C222.301 182.688 232.638 180.503 245.412 177.929C258.186 175.354 268.553 173.352 268.576 173.459Z" fill="#FAFAFA"/>
<path d="M145.924 170.785C145.924 170.785 145.832 170.877 145.641 171.022L144.8 171.626C144.036 172.153 142.99 172.886 141.66 173.795C138.994 175.598 135.281 178.058 131.14 180.71C126.999 183.361 123.217 185.706 120.444 187.379C119.069 188.212 117.946 188.907 117.167 189.335L116.265 189.839C116.162 189.906 116.052 189.96 115.937 190C115.937 190 116.028 189.908 116.219 189.778L117.083 189.198L120.299 187.142L130.911 180.373L141.485 173.558L144.701 171.503L145.587 170.953C145.693 170.885 145.806 170.829 145.924 170.785Z" fill="#FAFAFA"/>
<path d="M132.867 174.238C132.867 174.238 132.775 174.33 132.584 174.475L131.744 175.079C130.98 175.598 129.933 176.339 128.596 177.241C125.93 179.051 122.217 181.504 118.083 184.117C113.95 186.73 110.161 189.121 107.387 190.794C106.012 191.627 104.889 192.322 104.11 192.742L103.208 193.254C103.107 193.322 102.997 193.373 102.88 193.407C102.966 193.323 103.06 193.249 103.163 193.185L104.026 192.612L107.235 190.55L117.854 183.788L128.428 176.973L131.644 174.911L132.523 174.368C132.631 174.31 132.747 174.266 132.867 174.238Z" fill="#FAFAFA"/>
<path d="M68.5458 196.478C68.4287 196.27 68.3486 196.042 68.309 195.806C68.1867 195.371 68.0187 194.729 67.8277 193.934C67.3254 191.858 67.069 189.729 67.0636 187.593C67.0528 185.435 67.5501 183.304 68.5153 181.374C68.8172 180.797 69.1809 180.253 69.6001 179.754C69.7415 179.564 69.9116 179.396 70.1044 179.258C69.6167 179.982 69.1678 180.732 68.7597 181.504C67.8891 183.423 67.4434 185.508 67.4533 187.616C67.4765 189.726 67.7042 191.83 68.1333 193.896C68.3243 194.747 68.4621 195.61 68.5458 196.478Z" fill="#FAFAFA"/>
<path d="M37.4358 250.646C37.4081 250.374 37.4081 250.1 37.4358 249.829C37.4358 249.278 37.4358 248.484 37.4816 247.537C37.5427 245.573 37.6879 242.861 37.9247 239.897C38.1616 236.932 38.4442 234.212 38.6887 232.257C38.811 231.279 38.9179 230.492 39.002 229.965C39.0307 229.682 39.0896 229.402 39.1777 229.132C39.2161 229.416 39.2161 229.704 39.1777 229.988L38.979 232.28C38.811 234.327 38.5818 236.978 38.3296 239.92C38.0775 242.861 37.9247 245.504 37.7796 247.559C37.7108 248.476 37.6497 249.248 37.6038 249.851C37.5806 250.122 37.5241 250.389 37.4358 250.646Z" fill="#FAFAFA"/>
<path d="M121.163 265.475C121.163 265.559 119.688 265.765 117.404 266.506C116.067 266.94 114.762 267.469 113.5 268.087C110.407 269.624 107.609 271.693 105.233 274.199C104.263 275.217 103.367 276.302 102.552 277.446C101.169 279.41 100.519 280.762 100.451 280.724C100.564 280.391 100.707 280.069 100.879 279.761C101.049 279.388 101.243 279.026 101.459 278.677C101.704 278.264 101.971 277.783 102.322 277.286C103.113 276.105 103.997 274.988 104.966 273.947C106.166 272.675 107.472 271.507 108.87 270.456C110.28 269.432 111.779 268.535 113.347 267.774C114.628 267.159 115.957 266.648 117.32 266.246C117.893 266.055 118.435 265.948 118.901 265.834C119.302 265.737 119.707 265.66 120.116 265.604C120.46 265.528 120.81 265.484 121.163 265.475Z" fill="#FAFAFA"/>
<path d="M196.401 219.352C196.392 219.243 196.392 219.133 196.401 219.024C196.401 218.789 196.401 218.468 196.401 218.061C196.401 217.19 196.401 215.945 196.348 214.355C196.302 211.116 196.241 206.463 196.157 200.726C195.95 189.197 195.668 173.313 195.355 155.764C195.041 138.215 194.774 122.301 194.667 110.795C194.613 105.042 194.598 100.382 194.606 97.1655C194.606 95.5687 194.606 94.3234 194.606 93.4601V92.4975C194.606 92.2759 194.606 92.1689 194.606 92.1689C194.616 92.2782 194.616 92.3882 194.606 92.4975C194.606 92.7267 194.606 93.0475 194.606 93.4601C194.606 94.3234 194.606 95.5687 194.659 97.1655C194.705 100.405 194.766 105.05 194.85 110.788C195.057 122.316 195.339 138.2 195.653 155.757C195.966 173.313 196.241 189.212 196.34 200.718C196.394 206.479 196.417 211.131 196.409 214.348C196.409 215.945 196.409 217.19 196.409 218.061C196.409 218.466 196.409 218.787 196.409 219.024C196.413 219.133 196.41 219.243 196.401 219.352Z" fill="#FAFAFA"/>
<path d="M417.449 352.988C437.661 352.18 453.391 335.14 452.583 314.928C451.774 294.716 434.734 278.986 414.522 279.794C394.31 280.603 378.581 297.643 379.389 317.855C380.197 338.067 397.237 353.796 417.449 352.988Z" fill="#263238"/>
<path d="M379.349 315.8C379.349 315.8 379.349 315.869 379.349 315.899C379.209 325.611 382.933 334.981 389.701 341.947C396.47 348.913 405.728 352.905 415.44 353.045C425.152 353.185 434.521 349.461 441.487 342.692C448.454 335.924 452.446 326.665 452.586 316.953V316.862L379.349 315.8Z" fill="#263238"/>
<path d="M390.251 316.052C390.178 321.136 391.613 326.127 394.377 330.395C397.14 334.663 401.107 338.016 405.775 340.03C410.444 342.043 415.605 342.628 420.606 341.708C425.606 340.789 430.222 338.407 433.869 334.865C437.516 331.322 440.031 326.778 441.096 321.806C442.16 316.834 441.727 311.659 439.85 306.933C437.973 302.208 434.737 298.145 430.551 295.259C426.366 292.372 421.418 290.792 416.334 290.718C409.516 290.62 402.938 293.233 398.047 297.984C393.156 302.735 390.352 309.234 390.251 316.052Z" fill="#FAFAFA"/>
<path d="M416.334 290.718C412.958 290.668 409.605 291.284 406.467 292.531C403.329 293.777 400.467 295.629 398.045 297.982C395.623 300.335 393.688 303.141 392.35 306.242C391.013 309.342 390.3 312.676 390.251 316.052L441.668 316.816C441.72 313.438 441.105 310.084 439.86 306.944C438.614 303.804 436.762 300.941 434.409 298.517C432.057 296.093 429.249 294.157 426.148 292.819C423.046 291.48 419.711 290.766 416.334 290.718Z" fill="#E0E0E0"/>
<path d="M400.336 316.197C400.291 319.295 401.165 322.336 402.849 324.936C404.532 327.537 406.949 329.58 409.794 330.806C412.638 332.033 415.783 332.389 418.83 331.828C421.876 331.268 424.688 329.816 426.91 327.658C429.132 325.499 430.664 322.73 431.312 319.7C431.959 316.671 431.695 313.518 430.55 310.639C429.406 307.76 427.433 305.286 424.882 303.528C422.332 301.77 419.317 300.808 416.219 300.764C412.067 300.705 408.06 302.298 405.082 305.192C402.103 308.086 400.396 312.044 400.336 316.197Z" fill="#263238"/>
<path d="M367.82 326.458C367.82 326.458 362.243 274.506 416.074 274.506C465.734 274.506 464.634 319.185 464.16 326.099H456.375C456.375 326.099 460.34 282.062 416.074 282.062C371.808 282.062 375.659 326.993 375.659 326.993C375.659 326.993 372.389 326.832 367.82 326.458Z" fill="#455A64"/>
<path d="M396.653 279.885C396.52 279.953 396.379 280.004 396.233 280.037C395.951 280.137 395.53 280.236 395.011 280.419C393.517 280.894 392.055 281.464 390.633 282.123C385.927 284.282 381.758 287.457 378.426 291.42C375.094 295.383 372.683 300.036 371.365 305.043C370.962 306.55 370.653 308.081 370.441 309.627C370.357 310.177 370.326 310.605 370.28 310.895C370.267 311.045 370.242 311.193 370.204 311.338C370.185 311.191 370.185 311.042 370.204 310.895C370.204 310.597 370.204 310.131 370.295 309.612C370.447 308.04 370.718 306.482 371.105 304.951C372.358 299.868 374.76 295.139 378.127 291.13C381.493 287.121 385.736 283.937 390.526 281.825C391.967 281.182 393.453 280.646 394.973 280.221C395.507 280.068 395.935 279.984 396.218 279.915C396.361 279.889 396.508 279.878 396.653 279.885Z" fill="#FAFAFA"/>
<path d="M528.879 332.753L535.388 342.547L538.314 351.776C538.363 351.935 538.444 352.081 538.551 352.207C538.659 352.333 538.792 352.434 538.942 352.506C539.091 352.578 539.253 352.618 539.419 352.624C539.584 352.63 539.749 352.601 539.903 352.54C540.09 352.477 540.257 352.369 540.39 352.225C540.524 352.081 540.619 351.905 540.667 351.715C541.263 349.301 543.41 340.408 542.898 339.713C542.386 339.017 536.71 328.933 536.71 328.933L528.879 332.753Z" fill="#455A64"/>
<g opacity="0.6">
<path opacity="0.6" d="M539.903 352.532L542.44 339.04L542.707 339.46C542.939 339.823 543.034 340.256 542.975 340.683C542.814 341.821 542.295 344.961 540.683 351.684C540.636 351.878 540.542 352.058 540.409 352.206C540.275 352.354 540.107 352.466 539.919 352.532H539.903Z" fill="white"/>
</g>
<g opacity="0.6">
<path opacity="0.6" d="M538.368 337.122C538.31 337.289 538.312 337.471 538.373 337.637C538.434 337.803 538.551 337.942 538.704 338.031C538.869 338.103 539.055 338.109 539.224 338.048C539.393 337.987 539.532 337.864 539.613 337.703C539.683 337.526 539.684 337.329 539.616 337.15C539.548 336.972 539.416 336.826 539.246 336.74C539.067 336.682 538.872 336.697 538.703 336.781C538.534 336.865 538.406 337.013 538.345 337.191" fill="white"/>
</g>
<path d="M539.422 346.757C538.988 346.593 538.526 346.518 538.062 346.535C537.606 346.62 537.171 346.791 536.779 347.039C536.779 347.039 536.832 346.864 537.046 346.68C537.331 346.452 537.676 346.312 538.039 346.275C538.402 346.233 538.769 346.299 539.094 346.466C539.338 346.596 539.445 346.734 539.422 346.757Z" fill="#263238"/>
<path d="M539.559 348.537C539.172 348.552 538.787 348.595 538.406 348.666C538.045 348.803 537.695 348.967 537.359 349.155C537.298 349.117 537.642 348.605 538.337 348.391C538.537 348.315 538.753 348.289 538.966 348.314C539.179 348.339 539.382 348.416 539.559 348.537Z" fill="#263238"/>
<path d="M539.666 344.212C539.067 344.194 538.466 344.222 537.871 344.296C537.293 344.447 536.729 344.644 536.183 344.884C536.611 344.415 537.194 344.116 537.825 344.044C538.44 343.884 539.091 343.943 539.666 344.212Z" fill="#263238"/>
<path d="M537.932 341.073C537.932 341.149 537.245 341.264 536.519 341.692C535.793 342.119 535.327 342.647 535.266 342.601C535.498 342.105 535.895 341.705 536.389 341.47C536.84 341.157 537.387 341.016 537.932 341.073Z" fill="#263238"/>
<path d="M536.091 338.146C535.556 338.279 535.042 338.485 534.563 338.757C534.145 339.095 533.772 339.485 533.455 339.919C533.455 339.919 533.455 339.72 533.6 339.437C533.8 339.08 534.08 338.774 534.418 338.543C534.756 338.313 535.143 338.164 535.548 338.108C535.9 338.077 536.091 338.116 536.091 338.146Z" fill="#263238"/>
<path d="M534.265 338.192C534.161 338.086 534.078 337.962 534.021 337.825C533.831 337.46 533.719 337.06 533.692 336.649C533.646 336.353 533.697 336.05 533.837 335.786C533.892 335.702 533.972 335.638 534.065 335.601C534.157 335.564 534.259 335.557 534.357 335.579C534.542 335.64 534.699 335.765 534.8 335.931C534.989 336.279 535.05 336.683 534.974 337.072C534.897 337.461 534.687 337.811 534.38 338.062C534.071 338.303 533.698 338.447 533.308 338.475C532.917 338.504 532.527 338.416 532.187 338.223C532.101 338.176 532.027 338.11 531.97 338.031C531.913 337.952 531.875 337.861 531.858 337.764C531.847 337.664 531.869 337.563 531.92 337.477C531.971 337.39 532.048 337.322 532.141 337.283C532.42 337.181 532.72 337.155 533.012 337.207C533.419 337.252 533.814 337.369 534.181 337.55C534.317 337.608 534.442 337.691 534.548 337.795C534.06 337.588 533.546 337.452 533.02 337.39C532.762 337.355 532.5 337.384 532.256 337.474C532.204 337.494 532.161 337.53 532.132 337.577C532.103 337.624 532.09 337.679 532.095 337.734C532.113 337.796 532.143 337.853 532.184 337.903C532.224 337.953 532.275 337.994 532.332 338.024C532.631 338.182 532.97 338.25 533.307 338.222C533.644 338.193 533.966 338.069 534.234 337.864C534.486 337.646 534.659 337.352 534.728 337.026C534.797 336.701 534.758 336.362 534.617 336.061C534.552 335.941 534.446 335.849 534.319 335.801C534.265 335.786 534.208 335.789 534.156 335.808C534.104 335.827 534.06 335.862 534.028 335.908C533.899 336.14 533.851 336.409 533.891 336.672C533.933 337.195 534.059 337.709 534.265 338.192Z" fill="#263238"/>
<path d="M522.691 338.352L521.927 348.185C521.927 348.185 531.683 351.524 531.721 353.357L512.621 353.311L513.156 337.947L522.691 338.352Z" fill="#455A64"/>
<g opacity="0.6">
<path opacity="0.6" d="M516.067 347.123C515.88 347.169 515.718 347.283 515.611 347.443C515.505 347.603 515.463 347.797 515.494 347.986C515.537 348.173 515.65 348.336 515.808 348.444C515.967 348.551 516.16 348.595 516.349 348.567C516.546 348.515 516.717 348.391 516.828 348.221C516.94 348.05 516.984 347.844 516.953 347.643C516.893 347.449 516.759 347.287 516.58 347.193C516.401 347.098 516.191 347.079 515.998 347.138" fill="white"/>
</g>
<g opacity="0.6">
<path opacity="0.6" d="M512.644 353.311L512.698 351.783L531.163 352.471C531.358 352.574 531.523 352.724 531.646 352.906C531.769 353.089 531.844 353.299 531.866 353.518L512.644 353.311Z" fill="white"/>
</g>
<path d="M522.255 348.101C522.255 348.193 521.782 348.216 521.308 348.499C520.834 348.781 520.544 349.163 520.498 349.125C520.452 349.087 520.574 348.544 521.147 348.216C521.72 347.887 522.278 348.017 522.255 348.101Z" fill="#263238"/>
<path d="M524.226 349.011C524.226 349.102 523.837 349.24 523.5 349.622C523.164 350.004 523.065 350.386 522.966 350.386C522.866 350.386 522.836 349.851 523.264 349.385C523.691 348.919 524.226 348.919 524.226 349.011Z" fill="#263238"/>
<path d="M525.273 351.439C525.189 351.439 525.074 350.981 525.334 350.477C525.594 349.972 526.037 349.789 526.098 349.873C526.159 349.957 525.854 350.217 525.647 350.637C525.441 351.057 525.365 351.439 525.273 351.439Z" fill="#263238"/>
<path d="M522.178 345.839C522.133 345.923 521.712 345.778 521.185 345.793C520.658 345.809 520.238 345.954 520.192 345.878C520.146 345.801 520.551 345.473 521.178 345.465C521.804 345.457 522.224 345.771 522.178 345.839Z" fill="#263238"/>
<g opacity="0.3">
<path opacity="0.3" d="M522.538 340.301L522.408 342.051L513.018 341.592L513.072 340.011L522.538 340.301Z" fill="black"/>
</g>
<path d="M522.293 343.854C521.977 343.928 521.647 343.915 521.338 343.816C520.995 343.737 520.661 343.619 520.345 343.464C520.159 343.374 519.98 343.269 519.81 343.151C519.703 343.088 519.608 343.008 519.527 342.914C519.474 342.842 519.444 342.755 519.444 342.666C519.444 342.576 519.474 342.489 519.527 342.417C519.578 342.354 519.642 342.304 519.714 342.269C519.787 342.235 519.867 342.218 519.948 342.219C520.067 342.225 520.185 342.245 520.299 342.28C520.501 342.34 520.698 342.416 520.887 342.509C521.205 342.669 521.497 342.878 521.751 343.128C522.179 343.556 522.316 343.892 522.278 343.892C522.24 343.892 522.033 343.625 521.598 343.265C521.339 343.062 521.057 342.89 520.757 342.754C520.584 342.672 520.402 342.608 520.215 342.563C520.016 342.501 519.848 342.494 519.787 342.563C519.726 342.631 519.787 342.608 519.787 342.67C519.843 342.739 519.91 342.799 519.986 342.845C520.145 342.956 520.311 343.058 520.482 343.151C520.773 343.31 521.077 343.443 521.392 343.548C521.699 343.63 522 343.732 522.293 343.854Z" fill="#263238"/>
<path d="M522.163 343.983C521.994 343.703 521.919 343.376 521.949 343.051C521.949 342.484 522.099 341.928 522.385 341.439C522.438 341.311 522.526 341.2 522.637 341.118C522.749 341.036 522.881 340.985 523.019 340.973C523.103 340.981 523.184 341.011 523.252 341.061C523.321 341.111 523.375 341.178 523.409 341.255C523.449 341.372 523.477 341.492 523.493 341.614C523.525 341.902 523.5 342.194 523.419 342.472C523.337 342.75 523.201 343.009 523.019 343.234C522.622 343.708 522.255 343.807 522.255 343.777C522.255 343.746 522.561 343.563 522.866 343.097C523.038 342.827 523.152 342.526 523.202 342.21C523.229 342.025 523.229 341.838 523.202 341.653C523.202 341.446 523.118 341.286 523.034 341.301C522.95 341.316 522.775 341.439 522.691 341.599C522.589 341.762 522.502 341.933 522.431 342.111C522.312 342.415 522.238 342.734 522.209 343.058C522.133 343.616 522.217 343.968 522.163 343.983Z" fill="#263238"/>
<path d="M529.673 257.468C529.673 257.468 533.18 264.657 534.097 269.783C534.357 271.235 524.058 344.93 524.058 344.93L511.88 344.472L517.587 275.895L515.555 262.143L529.673 257.468Z" fill="#263238"/>
<path d="M500.091 261.922C500.007 266.899 500.262 271.877 500.855 276.82C501.757 284.047 503.82 292.276 504.492 296.875C505.974 307.051 508.893 308.977 508.893 308.977L532.256 338.872L541.424 330.628L520.796 297.677C520.796 297.677 515.31 261.112 515.501 262.098C515.692 263.083 500.091 261.922 500.091 261.922Z" fill="#263238"/>
<path d="M509.382 309.42C509.448 309.53 509.522 309.634 509.603 309.733L510.268 310.589L512.721 313.752C514.791 316.449 517.61 320.146 520.735 324.234C523.86 328.321 526.702 332.034 528.81 334.678C529.857 335.999 530.72 337.061 531.332 337.787L532.034 338.612C532.113 338.714 532.2 338.808 532.294 338.895C532.232 338.783 532.157 338.678 532.073 338.582L531.408 337.718L528.956 334.563L520.941 324.073C517.824 319.971 514.974 316.273 512.866 313.637C511.819 312.308 510.956 311.254 510.352 310.528L509.642 309.695C509.565 309.595 509.478 309.502 509.382 309.42Z" fill="#455A64"/>
<path d="M506.776 267.522C506.763 267.933 506.65 268.334 506.448 268.691C505.63 270.496 504.13 271.902 502.276 272.603C501.905 272.772 501.501 272.858 501.092 272.855C502.32 272.336 503.461 271.632 504.477 270.769C505.406 269.812 506.182 268.717 506.776 267.522Z" fill="#455A64"/>
<path d="M531.988 263.351C531.43 263.605 530.81 263.693 530.202 263.604C529.595 263.514 529.027 263.251 528.565 262.847C528.619 262.747 529.329 263.076 530.261 263.206C531.194 263.336 531.965 263.244 531.988 263.351Z" fill="#455A64"/>
<path d="M518.84 273.512C518.879 273.673 518.907 273.836 518.924 274.001C518.97 274.352 519.023 274.818 519.1 275.406C519.237 276.667 519.436 278.462 519.688 280.647C520.162 285.14 520.811 291.343 521.56 298.479V298.395L524.944 303.804L536.702 322.729C538.177 325.135 539.376 327.091 540.224 328.489L541.141 330.048C541.259 330.226 541.359 330.415 541.439 330.613C541.305 330.446 541.182 330.27 541.072 330.086L540.064 328.558L536.435 322.866C533.379 318.015 529.2 311.36 524.578 304.011L521.201 298.594V298.548C520.513 291.435 519.902 285.201 519.467 280.701L518.993 275.445C518.947 274.856 518.909 274.39 518.886 274.031C518.85 273.861 518.834 273.686 518.84 273.512Z" fill="#455A64"/>
<path d="M515.287 209.29L522.576 211.628L523.126 227.084C523.126 227.084 527.068 245.244 527.924 247.536C528.928 250.282 529.672 253.116 530.147 256.001C530.147 256.001 528.741 266.254 518.496 267.461C508.251 268.668 498.716 262.785 498.716 262.785C498.716 262.785 495.301 247.505 492.169 233.799C489.189 220.758 491.611 212.98 491.611 212.98L502.834 208.946L515.287 209.29Z" fill="#455A64"/>
<path d="M520.703 217.894L514.005 218.704L514.214 220.426L520.911 219.615L520.703 217.894Z" fill="#FAFAFA"/>
<path d="M522.316 199.404C522.252 199.027 522.05 198.688 521.749 198.454C521.448 198.219 521.069 198.106 520.689 198.136C520.859 198.007 520.994 197.838 521.082 197.643C521.17 197.449 521.208 197.235 521.192 197.022C521.176 196.81 521.107 196.604 520.991 196.425C520.875 196.246 520.716 196.098 520.528 195.997C520.886 195.452 521.028 194.794 520.928 194.15C520.828 193.506 520.492 192.923 519.986 192.513L512.292 203.125C512.884 203.595 513.565 203.94 514.294 204.139C515.022 204.339 515.784 204.389 516.533 204.286C518.034 204.065 519.476 203.546 520.773 202.758C521.13 202.604 521.426 202.335 521.613 201.994C521.758 201.635 521.552 201.115 521.155 201.108C521.526 201.02 521.851 200.797 522.066 200.481C522.281 200.166 522.37 199.782 522.316 199.404Z" fill="#263238"/>
<path d="M503.208 193.605C503.065 193.571 502.914 193.581 502.777 193.634C502.639 193.687 502.521 193.781 502.438 193.903C502.355 194.025 502.311 194.169 502.312 194.316C502.313 194.464 502.36 194.608 502.444 194.728C502.215 194.697 501.982 194.729 501.769 194.82C501.556 194.911 501.372 195.058 501.235 195.245C501.099 195.432 501.016 195.653 500.995 195.883C500.974 196.114 501.015 196.345 501.115 196.554C500.574 196.524 500.037 196.671 499.587 196.974C499.36 197.13 499.181 197.346 499.073 197.6C498.965 197.853 498.931 198.132 498.976 198.403C499.04 198.665 499.203 198.891 499.431 199.034C499.66 199.177 499.935 199.225 500.198 199.167C500.064 199.403 500 199.672 500.013 199.942C500.027 200.213 500.118 200.474 500.275 200.695C500.358 200.798 500.462 200.881 500.581 200.939C500.699 200.998 500.829 201.03 500.961 201.034C501.093 201.037 501.224 201.012 501.346 200.96C501.467 200.909 501.576 200.831 501.665 200.733C501.519 200.931 501.443 201.173 501.45 201.419C501.457 201.665 501.547 201.902 501.704 202.091C501.862 202.281 502.078 202.412 502.319 202.463C502.56 202.515 502.811 202.484 503.033 202.376C502.973 202.621 502.991 202.879 503.086 203.113C503.182 203.347 503.348 203.545 503.562 203.679C503.777 203.813 504.028 203.876 504.28 203.858C504.531 203.841 504.772 203.745 504.966 203.583L503.208 193.605Z" fill="#263238"/>
<path d="M503.682 191.573L503.346 210.36C503.321 211.84 503.86 213.275 504.853 214.375C505.845 215.474 507.218 216.155 508.694 216.281C509.49 216.351 510.292 216.257 511.051 216.005C511.809 215.753 512.508 215.348 513.103 214.815C513.699 214.283 514.179 213.633 514.514 212.908C514.849 212.182 515.032 211.395 515.05 210.596C515.05 208.809 515.112 207.342 515.112 207.342C515.112 207.342 519.696 207.036 520.146 202.529C520.414 199.916 520.482 193.956 520.498 189.38C520.503 187.89 519.949 186.452 518.944 185.351C517.94 184.25 516.558 183.566 515.073 183.436L512.346 183.199C511.223 183.165 510.105 183.355 509.057 183.76C508.009 184.165 507.053 184.776 506.246 185.556C505.438 186.337 504.795 187.272 504.355 188.305C503.914 189.338 503.686 190.45 503.682 191.573Z" fill="#FFBE9D"/>
<path d="M515.096 207.342C513.006 207.144 511.017 206.348 509.366 205.05C509.366 205.05 510.527 208.465 515.073 208.457L515.096 207.342Z" fill="#EB996E"/>
<path d="M519.222 193.971C519.138 194.048 518.679 193.643 517.984 193.582C517.289 193.521 516.754 193.826 516.685 193.735C516.617 193.643 516.746 193.544 516.983 193.406C517.3 193.222 517.666 193.142 518.03 193.177C518.392 193.21 518.735 193.357 519.008 193.597C519.207 193.773 519.268 193.933 519.222 193.971Z" fill="#263238"/>
<path d="M511.88 194.27C511.866 194.438 511.788 194.594 511.661 194.705C511.534 194.817 511.369 194.874 511.2 194.866C511.117 194.866 511.036 194.849 510.96 194.817C510.884 194.785 510.815 194.738 510.757 194.679C510.699 194.62 510.654 194.55 510.624 194.473C510.594 194.396 510.579 194.314 510.581 194.232C510.595 194.063 510.674 193.907 510.8 193.796C510.927 193.685 511.093 193.627 511.261 193.636C511.344 193.636 511.425 193.652 511.502 193.684C511.578 193.716 511.647 193.763 511.704 193.822C511.762 193.881 511.807 193.951 511.837 194.028C511.867 194.105 511.882 194.187 511.88 194.27Z" fill="#263238"/>
<path d="M518.603 194.881C518.59 195.049 518.511 195.206 518.384 195.317C518.257 195.428 518.092 195.486 517.923 195.477C517.841 195.475 517.76 195.457 517.685 195.424C517.61 195.39 517.542 195.343 517.485 195.283C517.428 195.223 517.384 195.153 517.354 195.076C517.324 195 517.31 194.918 517.312 194.835C517.324 194.666 517.402 194.509 517.529 194.397C517.657 194.286 517.823 194.229 517.992 194.24C518.075 194.239 518.157 194.256 518.233 194.289C518.31 194.321 518.378 194.369 518.435 194.429C518.493 194.489 518.537 194.56 518.566 194.638C518.595 194.716 518.607 194.798 518.603 194.881Z" fill="#263238"/>
<path d="M512.468 193.376C512.384 193.452 511.926 193.047 511.231 192.986C510.535 192.925 509.993 193.231 509.924 193.139C509.855 193.047 509.985 192.948 510.222 192.81C510.538 192.628 510.903 192.548 511.267 192.58C511.631 192.613 511.976 192.758 512.254 192.994C512.453 193.177 512.514 193.338 512.468 193.376Z" fill="#263238"/>
<path d="M514.531 198.747C514.915 198.664 515.307 198.628 515.7 198.64C515.883 198.64 516.051 198.64 516.089 198.502C516.123 198.321 516.099 198.134 516.021 197.967C515.891 197.517 515.753 197.058 515.616 196.569C515.228 195.383 514.939 194.167 514.752 192.933C515.23 194.085 515.615 195.273 515.906 196.485C516.036 196.982 516.166 197.448 516.288 197.891C516.369 198.118 516.369 198.367 516.288 198.594C516.257 198.654 516.212 198.707 516.158 198.747C516.104 198.788 516.041 198.817 515.975 198.831C515.873 198.841 515.771 198.841 515.669 198.831C515.288 198.85 514.905 198.822 514.531 198.747Z" fill="#263238"/>
<path d="M512.445 199.045C512.56 199.045 512.499 199.809 513.095 200.397C513.691 200.986 514.5 200.978 514.5 201.077C514.5 201.177 514.302 201.215 513.966 201.192C513.523 201.157 513.106 200.968 512.789 200.657C512.483 200.362 512.305 199.959 512.292 199.534C512.292 199.213 512.399 199.038 512.445 199.045Z" fill="#263238"/>
<path d="M512.85 191.13C512.758 191.313 512.086 191.13 511.253 191.191C510.42 191.252 509.725 191.382 509.656 191.191C509.588 191 509.748 190.939 510.031 190.778C510.403 190.582 510.817 190.478 511.238 190.473C511.659 190.461 512.078 190.547 512.46 190.725C512.743 190.885 512.881 191.046 512.85 191.13Z" fill="#263238"/>
<path d="M519.306 191.97C519.168 192.123 518.702 191.917 518.129 191.856C517.556 191.794 517.06 191.856 516.96 191.695C516.861 191.535 517.006 191.458 517.235 191.328C517.537 191.175 517.877 191.114 518.213 191.153C518.548 191.193 518.865 191.331 519.123 191.55C519.314 191.764 519.367 191.901 519.306 191.97Z" fill="#263238"/>
<path d="M504.904 195.095C504.828 195.056 501.848 193.903 501.703 197.005C501.558 200.106 504.675 199.64 504.69 199.549C504.706 199.457 504.904 195.095 504.904 195.095Z" fill="#FFBE9D"/>
<path d="M503.812 198.319C503.812 198.319 503.751 198.357 503.659 198.396C503.529 198.445 503.385 198.445 503.254 198.396C503.062 198.258 502.91 198.071 502.813 197.855C502.716 197.639 502.679 197.401 502.704 197.166C502.714 196.9 502.78 196.64 502.895 196.402C502.933 196.308 502.993 196.224 503.068 196.156C503.143 196.089 503.233 196.039 503.331 196.012C503.393 195.999 503.459 196.008 503.515 196.039C503.571 196.07 503.614 196.12 503.636 196.18C503.636 196.272 503.636 196.333 503.636 196.333C503.636 196.333 503.705 196.287 503.69 196.157C503.676 196.079 503.636 196.009 503.575 195.958C503.495 195.889 503.391 195.853 503.285 195.859C503.157 195.878 503.035 195.93 502.933 196.008C502.83 196.087 502.748 196.191 502.697 196.31C502.548 196.571 502.466 196.865 502.46 197.166C502.429 197.44 502.48 197.718 502.607 197.964C502.733 198.21 502.929 198.413 503.17 198.548C503.252 198.575 503.339 198.585 503.424 198.575C503.51 198.566 503.593 198.539 503.667 198.495C503.797 198.396 503.82 198.327 503.812 198.319Z" fill="#EB996E"/>
<path d="M503.193 194.819C503.489 194.825 503.778 194.911 504.028 195.069C504.279 195.226 504.481 195.449 504.615 195.713C504.775 196.172 504.775 196.676 504.935 197.134C505.096 197.593 505.516 198.036 505.997 197.959C506.162 197.925 506.315 197.848 506.44 197.735C506.565 197.622 506.657 197.478 506.708 197.318C506.803 196.993 506.834 196.653 506.8 196.317C506.746 194.858 506.57 193.398 506.639 191.947C506.655 190.476 507.102 189.042 507.923 187.821C508.345 187.217 508.924 186.74 509.596 186.438C510.269 186.137 511.011 186.023 511.743 186.11C512.698 186.27 513.53 186.874 514.47 187.072C515.032 187.197 515.614 187.192 516.173 187.06C516.733 186.928 517.255 186.671 517.702 186.308C517.816 186.217 518.328 185.942 518.328 185.942C518.341 185.597 518.256 185.255 518.084 184.956C516.35 183.039 512.98 182.244 510.444 182.664C509.146 182.864 507.907 183.344 506.813 184.071C505.719 184.798 504.797 185.754 504.11 186.874C502.827 189.128 502.857 192.413 503.239 194.835" fill="#263238"/>
<path d="M521.048 188.609C520.774 189.044 520.391 189.401 519.937 189.642C519.482 189.883 518.972 190.001 518.458 189.984C517.429 189.937 516.418 189.696 515.478 189.273C513.989 188.761 512.454 188.395 510.894 188.181C510.742 188.181 510.558 188.181 510.489 188.02C510.421 187.86 510.589 187.646 510.757 187.531C512.201 186.599 515.509 186.24 517.228 186.317C518.09 186.335 518.932 186.573 519.676 187.009C520.42 187.445 521.039 188.064 521.476 188.807" fill="#263238"/>
<path d="M520.597 188.708C519.702 187.58 518.403 186.846 516.976 186.66C514.236 186.43 511.485 186.96 509.026 188.192C506.568 189.424 504.496 191.31 503.041 193.643C502.764 192.327 502.626 190.985 502.628 189.64C502.704 188.715 503.743 183.291 509.504 182.069C509.527 182.053 518.298 179.54 520.597 188.708Z" fill="#455A64"/>
<path d="M503.644 192.475C505.677 189.952 508.234 187.903 511.139 186.469C514.547 184.915 518.143 183.809 521.835 183.177C522.783 182.953 523.767 182.935 524.723 183.123C525.198 183.227 525.634 183.463 525.981 183.804C526.328 184.144 526.573 184.576 526.686 185.048C526.877 186.24 524.639 187.868 523.63 188.486C522.617 189.04 521.574 189.537 520.505 189.976C520.505 189.976 520.727 187.814 517.289 187.058C512.59 186.026 503.644 192.475 503.644 192.475Z" fill="#455A64"/>
<path d="M525.326 183.276C525 183.207 524.671 183.156 524.34 183.123C523.427 183.089 522.513 183.15 521.613 183.307C518.631 183.809 515.713 184.637 512.911 185.774C510.089 186.859 507.498 188.466 505.271 190.511C504.607 191.135 504.022 191.838 503.529 192.604C503.193 193.154 503.063 193.491 503.032 193.475C503.002 193.46 503.033 193.384 503.094 193.223C503.177 192.984 503.279 192.751 503.399 192.528C503.848 191.711 504.414 190.964 505.08 190.312C507.28 188.17 509.896 186.501 512.766 185.408C515.593 184.253 518.552 183.453 521.575 183.024C522.496 182.894 523.43 182.876 524.356 182.97C524.619 182.99 524.876 183.052 525.12 183.154C525.257 183.222 525.334 183.261 525.326 183.276Z" fill="#263238"/>
<path d="M514.172 184.475C515.294 183.998 516.486 183.706 517.702 183.611C517.436 183.363 517.141 183.147 516.823 182.97C515.877 183.044 514.949 183.269 514.073 183.634L514.172 184.475Z" fill="#FAFAFA"/>
<path d="M521.116 190.235C521.259 190.038 521.345 189.805 521.368 189.563C521.39 189.32 521.347 189.076 521.243 188.856C521.14 188.636 520.979 188.447 520.778 188.309C520.577 188.172 520.343 188.09 520.1 188.073C520.261 188.009 520.406 187.912 520.527 187.789C520.649 187.666 520.743 187.519 520.805 187.358C520.867 187.196 520.894 187.024 520.886 186.851C520.878 186.678 520.834 186.509 520.757 186.354C520.577 186.054 520.302 185.822 519.976 185.695C519.65 185.568 519.29 185.552 518.954 185.651C518.622 185.762 518.32 185.949 518.074 186.199C517.828 186.449 517.646 186.753 517.541 187.088C517.399 186.877 517.205 186.706 516.977 186.591C516.75 186.476 516.497 186.421 516.243 186.432C515.988 186.443 515.741 186.518 515.524 186.652C515.307 186.785 515.129 186.972 515.005 187.195C514.937 187.004 514.799 186.845 514.619 186.752C514.439 186.658 514.23 186.636 514.034 186.69C513.647 186.818 513.292 187.03 512.995 187.309C512.697 187.592 512.312 187.767 511.903 187.806L511.635 187.921C511.854 188.272 512.194 188.531 512.591 188.65C512.988 188.768 513.414 188.737 513.79 188.562C513.786 188.823 513.868 189.077 514.022 189.287C514.176 189.497 514.394 189.651 514.643 189.726C514.893 189.801 515.16 189.793 515.404 189.703C515.648 189.613 515.857 189.446 515.998 189.227C516.045 189.42 516.14 189.598 516.274 189.744C516.407 189.891 516.576 190.002 516.763 190.067C516.95 190.133 517.151 190.15 517.347 190.118C517.543 190.086 517.728 190.006 517.885 189.884C517.97 190.107 518.107 190.307 518.284 190.468C518.461 190.629 518.673 190.746 518.903 190.81C519.134 190.874 519.376 190.883 519.61 190.836C519.845 190.789 520.065 190.688 520.253 190.541C520.448 190.851 520.575 191.198 520.625 191.56C520.675 191.923 520.647 192.291 520.544 192.642C520.795 192.586 521.026 192.46 521.21 192.279C521.394 192.098 521.523 191.869 521.583 191.618C521.643 191.367 521.631 191.104 521.548 190.86C521.466 190.615 521.316 190.399 521.116 190.235Z" fill="#263238"/>
<path d="M508.197 189.472C507.131 189.944 506.109 190.509 505.141 191.16C504.17 191.824 503.392 192.733 502.888 193.796L504.416 195.255C504.836 195.393 505.18 195.538 505.501 195.255C505.666 195.111 505.794 194.928 505.871 194.723C505.948 194.518 505.973 194.296 505.944 194.079C506.146 194.122 506.357 194.109 506.553 194.04C506.749 193.972 506.922 193.851 507.053 193.691C507.185 193.531 507.27 193.338 507.3 193.133C507.329 192.928 507.301 192.718 507.22 192.528C507.371 192.492 507.51 192.416 507.623 192.309C507.736 192.202 507.818 192.066 507.861 191.916C507.901 191.767 507.901 191.609 507.863 191.46C507.824 191.31 507.747 191.172 507.64 191.061C507.812 191.051 507.978 190.99 508.117 190.887C508.256 190.784 508.361 190.642 508.42 190.48C508.48 190.318 508.49 190.141 508.451 189.973C508.411 189.805 508.323 189.652 508.197 189.533V189.472Z" fill="#263238"/>
<path d="M522.576 211.628C522.576 211.628 527.091 214.34 528.451 216.754C529.811 219.169 537.038 236.786 536.74 239.674C536.442 242.562 529.658 244.342 529.658 244.342L522.576 235.174L525.815 233.242L522.576 227V211.628Z" fill="#455A64"/>
<path d="M529.674 244.319C529.674 244.319 513.263 247.605 507.304 240.499L509.03 234.502C509.03 234.502 519.872 237.069 523.264 235.969L529.674 244.319Z" fill="#FFBE9D"/>
<path d="M531.37 229.742C531.431 229.864 529.444 230.697 527.374 232.279C525.304 233.86 523.997 235.572 523.89 235.487C524.076 235.06 524.335 234.667 524.654 234.326C525.375 233.45 526.193 232.658 527.091 231.965C527.995 231.278 528.971 230.691 530.002 230.216C530.428 229.982 530.89 229.822 531.37 229.742Z" fill="#263238"/>
<path d="M526.106 233.02C525.521 232.094 525.027 231.114 524.631 230.094C524.108 229.133 523.658 228.135 523.287 227.106C524.007 227.945 524.583 228.898 524.99 229.926C525.505 230.9 525.881 231.941 526.106 233.02Z" fill="#263238"/>
<path d="M523.126 225.602C523.082 224.74 522.949 223.884 522.729 223.05C522.59 222.195 522.367 221.355 522.064 220.544C522.248 222.261 522.604 223.955 523.126 225.602Z" fill="#263238"/>
<path d="M493.666 213.92C493.979 214.249 498.487 217.236 499.992 222.324C501.497 227.412 503.155 232.722 503.155 232.722L509.03 233.486L505.714 247.039C503.471 246.693 501.328 245.869 499.431 244.622C497.534 243.375 495.928 241.735 494.72 239.812C492.098 235.243 489.977 230.404 488.395 225.38C488.395 225.38 488.891 208.923 493.666 213.92Z" fill="#455A64"/>
<path d="M507.013 233.218C507.013 233.218 504.523 227.641 504.187 227.565C503.85 227.488 499.045 225.8 499.045 225.8C498.898 226.191 498.898 226.623 499.045 227.015L497.311 227.236C497.311 227.236 497.57 228.298 498.159 228.443L497.532 229.001C497.846 229.415 498.248 229.754 498.709 229.994C498.886 230.082 499.08 230.127 499.278 230.127C499.475 230.127 499.67 230.082 499.847 229.994C499.847 229.994 499.633 230.391 500.611 231.018C501.589 231.644 503.293 232.546 503.293 232.546L507.013 233.218Z" fill="#FFBE9D"/>
<path d="M503.3 232.576C503.3 232.576 501.596 231.644 500.618 231.048C499.77 230.514 499.793 230.147 499.854 230.04C499.679 230.119 499.489 230.16 499.297 230.16C499.104 230.16 498.914 230.119 498.739 230.04C498.277 229.795 497.873 229.453 497.555 229.039L498.128 228.435C497.555 228.267 497.303 227.267 497.295 227.221L499.022 226.999C498.883 226.609 498.883 226.182 499.022 225.792C499.067 225.792 503.842 227.488 504.171 227.557C504.499 227.626 506.898 232.989 507.005 233.218L503.3 232.576ZM499.052 227.007L497.318 227.228C497.318 227.351 497.616 228.283 498.158 228.42L497.524 228.978C497.832 229.388 498.229 229.722 498.685 229.956C498.862 230.042 499.055 230.086 499.251 230.086C499.447 230.086 499.64 230.042 499.816 229.956V230.002C499.816 230.002 499.618 230.399 500.58 231.01C501.543 231.621 503.201 232.538 503.262 232.538L506.952 233.188C506.081 231.255 504.392 227.618 504.14 227.564C503.888 227.511 499.266 225.891 499.006 225.8C498.87 226.194 498.886 226.624 499.052 227.007Z" fill="#EB996E"/>
<path d="M499.197 227.03C500.212 227.523 501.265 227.934 502.345 228.26C502.788 228.421 503.224 228.535 503.567 228.703C503.875 228.849 504.127 229.09 504.286 229.391C504.576 229.911 504.683 230.285 504.729 230.27C504.71 229.93 504.616 229.598 504.454 229.299C504.293 228.954 504.025 228.67 503.69 228.49C503.282 228.306 502.864 228.148 502.437 228.016C501.382 227.61 500.299 227.28 499.197 227.03Z" fill="#EB996E"/>
<path d="M498.074 228.436C498.342 228.595 498.637 228.701 498.945 228.749C499.495 228.902 500.275 229.024 501.1 229.245C501.803 229.42 502.465 229.732 503.048 230.162C503.491 230.506 503.682 230.804 503.72 230.781C503.613 230.479 503.422 230.214 503.17 230.017C502.593 229.521 501.907 229.168 501.168 228.986C500.32 228.756 499.533 228.665 498.983 228.565C498.686 228.489 498.381 228.445 498.074 228.436Z" fill="#EB996E"/>
<path d="M502.483 230.987C502.2 230.605 501.791 230.335 501.329 230.223C500.893 230.027 500.404 229.981 499.938 230.093C499.938 230.177 500.55 230.216 501.245 230.468C501.94 230.72 502.437 231.048 502.483 230.987Z" fill="#EB996E"/>
<path d="M508.526 234.93L523.34 227.458L526.052 232.982C526.052 232.982 512.4 246.512 506.005 246.336" fill="#FFBE9D"/>
<path d="M499.526 219.268C499.548 219.641 499.614 220.01 499.725 220.368C499.885 221.032 500.114 221.949 500.389 222.958C500.664 223.966 500.924 224.883 501.153 225.54C501.237 225.901 501.366 226.25 501.535 226.579C501.508 226.209 501.442 225.843 501.337 225.487C501.176 224.822 500.947 223.905 500.672 222.889C500.397 221.873 500.137 220.971 499.908 220.322C499.822 219.957 499.693 219.603 499.526 219.268Z" fill="#263238"/>
<path d="M500.168 237.657C500.214 237.657 500.344 236.977 500.687 235.915C500.883 235.298 501.183 234.719 501.574 234.204C502.043 233.591 502.719 233.17 503.476 233.02C504.267 232.983 505.059 233.074 505.822 233.287L507.762 233.677C508.005 233.709 508.244 233.771 508.473 233.86C508.635 233.932 508.763 234.063 508.832 234.227C508.862 234.297 508.878 234.372 508.878 234.448C508.878 234.525 508.862 234.6 508.832 234.67C508.832 234.67 509.038 234.548 508.954 234.196C508.924 234.096 508.874 234.003 508.807 233.923C508.74 233.843 508.658 233.777 508.564 233.73C508.321 233.618 508.064 233.538 507.8 233.493L505.867 233.05C505.078 232.815 504.253 232.717 503.43 232.76C502.598 232.924 501.858 233.396 501.36 234.082C500.962 234.625 500.667 235.236 500.489 235.885C500.364 236.317 500.264 236.755 500.191 237.199C500.16 237.35 500.152 237.504 500.168 237.657Z" fill="#263238"/>
<path d="M498.128 234.678C498.533 233.962 499.075 233.334 499.725 232.829C500.443 232.401 501.213 232.067 502.017 231.836C501.761 231.795 501.499 231.816 501.253 231.897C500.657 232.021 500.093 232.265 499.595 232.615C499.091 232.966 498.675 233.429 498.38 233.967C498.236 234.178 498.149 234.423 498.128 234.678Z" fill="#263238"/>
<path d="M488.395 225.38C488.395 225.38 488.395 225.479 488.471 225.67C488.547 225.861 488.631 226.152 488.746 226.48C488.998 227.244 489.342 228.222 489.77 229.452C490.198 230.682 490.717 232.21 491.451 233.814C492.184 235.419 493.047 237.145 494.094 238.895C495.071 240.552 496.319 242.034 497.784 243.28C498.979 244.3 500.317 245.136 501.757 245.763C502.733 246.183 503.761 246.468 504.813 246.611C505.097 246.654 505.382 246.682 505.669 246.695C505.867 246.695 505.967 246.695 505.967 246.695C505.967 246.695 505.562 246.65 504.828 246.52C503.801 246.335 502.8 246.025 501.849 245.595C498.706 244.144 496.084 241.762 494.338 238.773C493.299 237.039 492.459 235.289 491.687 233.723C490.916 232.157 490.419 230.667 489.953 229.399C489.487 228.13 489.128 227.145 488.853 226.449L488.532 225.685C488.497 225.579 488.451 225.477 488.395 225.38Z" fill="#263238"/>
<path d="M492.643 214.24C492.643 214.317 493.773 214.729 495.064 215.501C496.356 216.272 497.28 217.075 497.356 217.029C496.107 215.654 494.472 214.688 492.665 214.256L492.643 214.24Z" fill="#263238"/>
<path d="M503.881 250.24C504.124 250.389 504.38 250.517 504.645 250.622C504.897 250.744 505.203 250.882 505.562 251.019C505.921 251.157 506.326 251.34 506.799 251.486C507.88 251.87 508.982 252.192 510.1 252.448C511.473 252.751 512.864 252.971 514.264 253.105C515.666 253.221 517.075 253.246 518.481 253.182C519.628 253.128 520.771 253.008 521.904 252.823C522.385 252.754 522.82 252.654 523.195 252.578C523.569 252.502 523.905 252.418 524.165 252.349C524.443 252.287 524.716 252.205 524.983 252.104C524.699 252.133 524.419 252.182 524.142 252.25C523.882 252.303 523.554 252.372 523.172 252.433C522.79 252.494 522.354 252.586 521.873 252.639C520.743 252.801 519.606 252.903 518.466 252.945C517.072 252.991 515.676 252.955 514.287 252.838C512.898 252.709 511.518 252.499 510.153 252.211C509.041 251.968 507.942 251.667 506.86 251.31C506.387 251.172 505.982 251.012 505.615 250.882C505.248 250.752 504.943 250.63 504.691 250.531C504.428 250.415 504.157 250.318 503.881 250.24Z" fill="#263238"/>
<path d="M515.914 257.934C516.942 257.801 517.95 257.545 518.916 257.17C519.909 256.885 520.864 256.479 521.758 255.963C521.758 255.894 520.444 256.383 518.832 256.918C517.22 257.452 515.898 257.865 515.914 257.934Z" fill="#263238"/>
<g opacity="0.3">
<path opacity="0.3" d="M527.221 244.724C523.835 245.393 520.357 245.445 516.953 244.877C515.716 244.502 514.423 244.347 513.133 244.418C512.11 244.667 511.122 245.042 510.191 245.534C508.434 246.256 506.524 246.532 504.633 246.336C502.743 246.14 500.93 245.479 499.358 244.411C499.911 245.466 500.708 246.375 501.684 247.059C502.659 247.744 503.785 248.185 504.966 248.345C507.329 248.645 509.729 248.431 512.002 247.719C513.355 247.277 514.755 246.995 516.174 246.878C517.977 246.832 519.741 247.421 521.522 247.451C523.609 247.512 525.661 246.892 527.366 245.686L527.221 244.724Z" fill="black"/>
</g>
<g opacity="0.3">
<path opacity="0.3" d="M521.354 256.49C520.594 257.766 519.546 258.845 518.293 259.641C517.041 260.437 515.618 260.928 514.141 261.074C513.504 261.154 512.856 261.102 512.239 260.921C511.93 260.831 511.643 260.678 511.396 260.471C511.149 260.265 510.947 260.01 510.803 259.722C511.488 259.282 512.246 258.969 513.041 258.798L521.27 256.544" fill="black"/>
</g>
<path d="M525.83 233.203C525.63 233.45 525.408 233.677 525.166 233.883C524.723 234.311 524.081 234.922 523.324 235.701C522.568 236.481 521.667 237.443 520.566 238.398C519.466 239.353 518.213 240.339 516.892 241.363C515.648 242.336 514.344 243.229 512.988 244.037C511.876 244.699 510.698 245.245 509.473 245.664C508.647 245.945 507.799 246.152 506.937 246.283C506.624 246.338 506.306 246.356 505.989 246.336C507.138 246.094 508.27 245.783 509.381 245.404C510.572 244.951 511.718 244.388 512.804 243.723C514.127 242.905 515.403 242.012 516.624 241.049C517.946 240.026 519.207 239.055 520.299 238.123C521.392 237.191 522.308 236.267 523.103 235.503C523.897 234.739 524.57 234.158 525.043 233.769C525.281 233.548 525.546 233.358 525.83 233.203Z" fill="#EB996E"/>
</svg>
