<svg width="65" height="65" viewBox="0 0 65 65" fill="none" xmlns="http://www.w3.org/2000/svg">
<path d="M32.5001 0L48.3199 8.14155L64.2058 16.2169L48.3199 24.3584L32.5001 32.5L16.6804 24.3584L0.794434 16.2169L16.6804 8.14155L32.5001 0Z" fill="#414141"/>
<path d="M52.2914 29.7203V22.373L44.3484 26.4107V33.758L48.717 28.3965L52.2914 29.7203Z" fill="#FFE194"/>
<path d="M32.5 32.4999V64.9999L64.2057 48.783V16.2168L52.2912 22.3726L52.0265 22.505V29.6537L48.7169 28.396L44.3483 33.7575V26.4103L32.5 32.4999Z" fill="#696969"/>
<path d="M32.5001 64.9999V32.4999L16.6804 24.3583L0.794434 16.2168V48.783L32.5001 64.9999Z" fill="#555555"/>
<path d="M12.7087 10.1265L44.3482 26.4096L52.0265 22.5043L52.2912 22.372L20.6517 6.08887L16.6802 8.1408L12.7087 10.1265Z" fill="#FFCC01"/>
</svg>
