<svg width="65" height="65" viewBox="0 0 65 65" fill="none" xmlns="http://www.w3.org/2000/svg">
<path d="M55.9863 0H5.71289C2.5628 0 0 2.5628 0 5.71289V55.9863C0 59.1364 2.5628 61.6992 5.71289 61.6992H43.291C43.7962 61.6992 44.2805 61.4985 44.6375 61.1414L61.1414 44.6375C61.4986 44.2804 61.6992 43.796 61.6992 43.291V5.71289C61.6992 2.5628 59.1364 0 55.9863 0Z" fill="#696969"/>
<path d="M30.8496 0H5.71289C2.5628 0 0 2.5628 0 5.71289V30.8496H30.8496V0Z" fill="#696969"/>
<path d="M61.6992 30.8496V5.71289C61.6992 2.5628 59.1364 0 55.9863 0H30.8496V30.8496H61.6992Z" fill="#555555"/>
<path d="M30.8496 30.8496V61.6992H43.291C43.7962 61.6992 44.2805 61.4985 44.6375 61.1414L61.1414 44.6375C61.4986 44.2804 61.6992 43.796 61.6992 43.291V30.8496H30.8496ZM59.7949 43.291H59.7962H59.7949Z" fill="#414141"/>
<path d="M0 30.8496V55.9863C0 59.1364 2.5628 61.6992 5.71289 61.6992H30.8496V30.8496H0Z" fill="#555555"/>
<path d="M19.8682 13.5205H17.3291V10.9814C17.3291 9.92977 16.4765 9.07715 15.4248 9.07715C14.3731 9.07715 13.5205 9.92977 13.5205 10.9814V13.5205H10.9814C9.92977 13.5205 9.07715 14.3731 9.07715 15.4248C9.07715 16.4765 9.92977 17.3291 10.9814 17.3291H13.5205V19.8682C13.5205 20.9198 14.3731 21.7725 15.4248 21.7725C16.4765 21.7725 17.3291 20.9198 17.3291 19.8682V17.3291H19.8682C20.9198 17.3291 21.7725 16.4765 21.7725 15.4248C21.7725 14.3731 20.9198 13.5205 19.8682 13.5205Z" fill="#DCF5FA"/>
<path d="M50.7178 17.3291H41.8311C40.7794 17.3291 39.9268 16.4765 39.9268 15.4248C39.9268 14.3731 40.7794 13.5205 41.8311 13.5205H50.7178C51.7695 13.5205 52.6221 14.3731 52.6221 15.4248C52.6221 16.4765 51.7695 17.3291 50.7178 17.3291Z" fill="white"/>
<path d="M18.1179 46.2745L19.9453 44.4471C20.689 43.7034 20.689 42.4977 19.9453 41.7541C19.2017 41.0104 17.9959 41.0104 17.2522 41.7541L15.4249 43.5814L13.5975 41.7541C12.8539 41.0104 11.6481 41.0104 10.9044 41.7541C10.1608 42.4977 10.1608 43.7034 10.9044 44.4471L12.7318 46.2745L10.9044 48.1018C10.1608 48.8455 10.1608 50.0512 10.9044 50.7949C11.2763 51.1667 11.7637 51.3527 12.2509 51.3527C12.7382 51.3527 13.2257 51.1669 13.5974 50.7949L15.4247 48.9675L17.2521 50.7949C17.624 51.1667 18.1113 51.3527 18.5986 51.3527C19.0858 51.3527 19.5733 51.1669 19.945 50.7949C20.6887 50.0512 20.6887 48.8455 19.945 48.1018L18.1179 46.2745Z" fill="#DCF5FA"/>
<path d="M45.3223 65C34.4718 65 25.6445 56.1726 25.6445 45.3223C25.6445 34.472 34.4718 25.6445 45.3223 25.6445C56.1727 25.6445 65 34.472 65 45.3223C65 56.1726 56.1727 65 45.3223 65Z" fill="url(#paint0_linear_1270_11113)"/>
<path d="M49.7656 51.0352H40.8789C39.8272 51.0352 38.9746 50.1825 38.9746 49.1309C38.9746 48.0792 39.8272 47.2266 40.8789 47.2266H49.7656C50.8173 47.2266 51.6699 48.0792 51.6699 49.1309C51.6699 50.1825 50.8173 51.0352 49.7656 51.0352Z" fill="white"/>
<path d="M49.7656 43.418H40.8789C39.8272 43.418 38.9746 42.5654 38.9746 41.5137C38.9746 40.462 39.8272 39.6094 40.8789 39.6094H49.7656C50.8173 39.6094 51.6699 40.462 51.6699 41.5137C51.6699 42.5654 50.8173 43.418 49.7656 43.418Z" fill="white"/>
<defs>
<linearGradient id="paint0_linear_1270_11113" x1="45.3223" y1="25.6445" x2="45.3223" y2="65" gradientUnits="userSpaceOnUse">
<stop stop-color="#FC0404"/>
<stop offset="1" stop-color="#E10000"/>
</linearGradient>
</defs>
</svg>
