<svg width="90" height="80" viewBox="0 0 90 80" fill="none" xmlns="http://www.w3.org/2000/svg">
<path d="M52.9084 24.1787H15.9927V76.9155C15.9927 78.3717 17.1733 79.5523 18.6295 79.5523H52.9084H87.3631C88.8193 79.5523 89.9999 78.3717 89.9999 76.9155V24.1787H52.9084Z" fill="#C0C0C0"/>
<path d="M90 76.9155V24.1787H52.9084V79.5523H87.3631C88.8192 79.5523 90 78.3717 90 76.9155Z" fill="#777676"/>
<path d="M87.3631 5.7207H52.9084H18.6295C17.1733 5.7207 15.9927 6.9013 15.9927 8.35754V21.5417L21.2664 26.8154H52.9084H84.7262L89.9999 21.5417V8.35754C89.9999 6.90148 88.8191 5.7207 87.3631 5.7207Z" fill="url(#paint0_linear_1279_11021)"/>
<path d="M90 21.5417V8.35754C90 6.9013 88.8194 5.7207 87.3631 5.7207H52.9084V26.8154H84.7263L90 21.5417Z" fill="#FF2929"/>
<path d="M34.4506 16.2683C32.9931 16.2683 31.8137 15.0889 31.8137 13.6315V3.0841C31.8137 1.62663 32.9931 0.447266 34.4506 0.447266C35.908 0.447266 37.0874 1.62663 37.0874 3.0841V13.6315C37.0874 15.0889 35.908 16.2683 34.4506 16.2683Z" fill="#47568C"/>
<path d="M71.3663 16.2683C69.9089 16.2683 68.7295 15.0889 68.7295 13.6315V3.0841C68.7295 1.62663 69.9089 0.447266 71.3663 0.447266C72.8238 0.447266 74.0032 1.62663 74.0032 3.0841V13.6315C74.0032 15.0889 72.8238 16.2683 71.3663 16.2683Z" fill="#29376D"/>
<path d="M52.9085 21.542H15.9928V24.1788C15.9928 51.4717 1.08779 64.2233 0.93837 64.3468C0.0912419 65.0626 -0.220432 66.2318 0.160679 67.2721C0.539153 68.3098 1.52551 69.0051 2.6328 69.0051H52.9085H71.3663C71.9844 69.0051 72.5818 68.7888 73.0555 68.3947C73.7379 67.8231 90 54.0749 90 24.1788V21.542H52.9085Z" fill="#D8D8D8"/>
<path d="M73.0555 68.3947C73.7379 67.8231 90 54.0749 90 24.1788V21.542H52.9084V69.0051H71.3663C71.9842 69.0049 72.5817 68.7887 73.0555 68.3947Z" fill="#919191"/>
<path d="M52.9086 0.447266C51.4511 0.447266 50.2717 1.62663 50.2717 3.0841V13.6315C50.2717 15.0889 51.4511 16.2683 52.9086 16.2683C54.366 16.2683 55.5454 15.0889 55.5454 13.6315V3.0841C55.5454 1.62663 54.366 0.447266 52.9086 0.447266Z" fill="#47568C"/>
<path d="M55.5453 13.6315V3.0841C55.5453 1.62663 54.3659 0.447266 52.9084 0.447266V16.2683C54.3659 16.2683 55.5453 15.0889 55.5453 13.6315Z" fill="#29376D"/>
<defs>
<linearGradient id="paint0_linear_1279_11021" x1="52.9963" y1="5.7207" x2="52.9963" y2="26.8154" gradientUnits="userSpaceOnUse">
<stop stop-color="#FC0404"/>
<stop offset="1" stop-color="#E10000"/>
</linearGradient>
</defs>
</svg>
