<svg width="86" height="88" viewBox="0 0 86 88" fill="none" xmlns="http://www.w3.org/2000/svg">
<path d="M42.9998 0L64.4174 11.0224L85.9245 21.9552L64.4174 32.9776L42.9998 44L21.5823 32.9776L0.0751953 21.9552L21.5823 11.0224L42.9998 0Z" fill="#D9AC80"/>
<path d="M69.7941 40.2371V30.29L59.0405 35.7564V45.7035L64.955 38.4448L69.7941 40.2371Z" fill="#D7BAA4"/>
<path d="M43 43.9999V87.9999L85.9246 66.0447V21.9551L69.7943 30.2891L69.4358 30.4683V40.1465L64.9552 38.4439L59.0407 45.7025V35.7555L43 43.9999Z" fill="#A67E4F"/>
<path d="M42.9998 87.9999V43.9999L21.5823 32.9775L0.0751953 21.9551V66.0447L42.9998 87.9999Z" fill="#926E43"/>
<path d="M16.2056 13.7115L59.0406 35.7563L69.4357 30.4691L69.7942 30.2899L26.9591 8.24512L21.5823 11.0231L16.2056 13.7115Z" fill="#F2D3BA"/>
</svg>
