<svg width="65" height="65" viewBox="0 0 65 65" fill="none" xmlns="http://www.w3.org/2000/svg">
<path d="M64.5938 62.3454L53.168 35.6852C52.868 34.985 52.1792 34.5312 51.4175 34.5312H13.3315C12.5698 34.5312 11.8815 34.985 11.5815 35.6852L0.155688 62.3454C-0.381879 63.5995 0.538531 65 1.90576 65H62.8433C64.2075 65 65.1324 63.602 64.5938 62.3454Z" fill="#696969"/>
<path d="M62.8433 65H32.3745V34.5312H51.4175C52.1792 34.5312 52.8675 34.9855 53.168 35.6852L64.5938 62.3454C65.1324 63.602 64.208 65 62.8433 65Z" fill="#555555"/>
<path d="M8.0878 54.1372L6.49493 57.2188C6.49493 57.2188 5.22491 60.1834 4.79297 61.1911H27.7774L30.2426 60.8955L18.3055 48.8984L8.0878 54.1372Z" fill="#159BE1"/>
<path d="M56.4159 53.5098L55.8094 51.5152C55.8094 51.5152 53.1359 45.2776 50.1625 38.3398H43.3487L38.7377 38.4232L18.3057 48.8988L30.2427 60.8958L33.1631 61.1914H37.1255L41.6819 61.064L56.4159 53.5098Z" fill="#5DC983"/>
<path d="M56.4158 53.5093L41.6818 61.0645L37.1253 61.1914H33.163L32.3745 61.1116V41.6862L38.7375 38.4237L41.8176 38.3676L43.3485 38.3398H50.1618C53.1353 45.2776 55.8088 51.5152 55.8088 51.5152L56.4158 53.5093Z" fill="#0EAB61"/>
<path d="M14.5873 38.3398C13.4199 41.0639 8.85407 51.7155 8.85407 51.7155L8.08789 54.1376L38.7372 38.4232L34.9901 38.3398H14.5873Z" fill="#0EAB61"/>
<path d="M38.7375 38.4237L32.3745 41.6862V38.3398H34.9899L38.7375 38.4237Z" fill="#0EAB61"/>
<path d="M56.4156 53.5098L41.6816 61.064L45.4064 61.1914H59.955C58.6081 58.0469 57.3132 55.0258 57.3132 55.0258L56.4156 53.5098Z" fill="#159BE1"/>
<path d="M21.4963 49.5246L33.163 61.1914H27.7775L17.9336 51.3476L6.50537 57.1949L8.854 51.7155C9.16643 51.5559 34.6776 38.4995 34.99 38.3398H43.3486L21.4963 49.5246Z" fill="#FED941"/>
<path d="M32.3745 60.4033L33.163 61.1918H32.3745V60.4033Z" fill="#FEB99E"/>
<path d="M43.3485 38.3398L41.0673 39.5077L32.3745 43.956V39.6778C33.9386 38.8779 34.9304 38.3701 34.9899 38.3398H43.3485Z" fill="#FCBE29"/>
<path d="M57.3135 55.0257L45.4067 61.1918H37.1255L55.8089 51.5156L57.3135 55.0257Z" fill="#FCBE29"/>
<path d="M32.3745 0C23.0658 0 15.2358 6.82373 15.2358 18.6621C15.2358 30.6622 30.2966 48.1197 30.9379 48.8571C31.6956 49.7289 33.0524 49.7304 33.8117 48.8571C34.4529 48.1197 49.5132 30.6622 49.5132 18.6621C49.5132 6.93283 41.5399 0 32.3745 0ZM32.3745 22.8516C29.2245 22.8516 26.6616 20.2887 26.6616 17.1387C26.6616 13.9886 29.2245 11.4258 32.3745 11.4258C35.5245 11.4258 38.0874 13.9886 38.0874 17.1387C38.0874 20.2887 35.5245 22.8516 32.3745 22.8516Z" fill="#EE3616"/>
<path d="M32.3745 0V11.4258C35.5245 11.4258 38.0874 13.9891 38.0874 17.1387C38.0874 20.2882 35.5245 22.8516 32.3745 22.8516V49.5117C32.9041 49.5117 33.4323 49.2935 33.8117 48.8566C39.4283 42.3999 49.5132 28.3363 49.5132 18.6621C49.5132 6.93283 41.5394 0 32.3745 0V0Z" fill="#CB0010"/>
</svg>
