<svg width="77" height="77" viewBox="0 0 77 77" fill="none" xmlns="http://www.w3.org/2000/svg">
<path d="M66.3223 0H6.76758C3.03594 0 0 3.03594 0 6.76758V66.3223C0 70.0539 3.03594 73.0898 6.76758 73.0898H51.2832C51.8816 73.0898 52.4553 72.8521 52.8782 72.429L72.429 52.8782C72.8522 52.4552 73.0898 51.8815 73.0898 51.2832V6.76758C73.0898 3.03594 70.0539 0 66.3223 0Z" fill="#696969"/>
<path d="M36.5449 0H6.76758C3.03594 0 0 3.03594 0 6.76758V36.5449H36.5449V0Z" fill="#696969"/>
<path d="M73.0898 36.5449V6.76758C73.0898 3.03594 70.0539 0 66.3223 0H36.5449V36.5449H73.0898Z" fill="#555555"/>
<path d="M36.5449 36.5449V73.0898H51.2832C51.8816 73.0898 52.4553 72.8521 52.8782 72.429L72.429 52.8782C72.8522 52.4552 73.0898 51.8815 73.0898 51.2832V36.5449H36.5449ZM70.834 51.2832H70.8355H70.834Z" fill="#414141"/>
<path d="M0 36.5449V66.3223C0 70.0539 3.03594 73.0898 6.76758 73.0898H36.5449V36.5449H0Z" fill="#555555"/>
<path d="M23.5361 16.0166H20.5283V13.0088C20.5283 11.763 19.5183 10.7529 18.2725 10.7529C17.0266 10.7529 16.0166 11.763 16.0166 13.0088V16.0166H13.0088C11.763 16.0166 10.7529 17.0266 10.7529 18.2725C10.7529 19.5183 11.763 20.5283 13.0088 20.5283H16.0166V23.5361C16.0166 24.782 17.0266 25.792 18.2725 25.792C19.5183 25.792 20.5283 24.782 20.5283 23.5361V20.5283H23.5361C24.782 20.5283 25.792 19.5183 25.792 18.2725C25.792 17.0266 24.782 16.0166 23.5361 16.0166Z" fill="#DCF5FA"/>
<path d="M60.0811 20.5283H49.5537C48.3079 20.5283 47.2979 19.5183 47.2979 18.2725C47.2979 17.0266 48.3079 16.0166 49.5537 16.0166H60.0811C61.3269 16.0166 62.3369 17.0266 62.3369 18.2725C62.3369 19.5183 61.3269 20.5283 60.0811 20.5283Z" fill="white"/>
<path d="M21.4628 54.8175L23.6275 52.6527C24.5085 51.7717 24.5085 50.3435 23.6275 49.4625C22.7467 48.5815 21.3182 48.5815 20.4373 49.4625L18.2725 51.6272L16.1078 49.4625C15.227 48.5815 13.7986 48.5815 12.9176 49.4625C12.0366 50.3435 12.0366 51.7717 12.9176 52.6527L15.0823 54.8175L12.9176 56.9822C12.0366 57.8632 12.0366 59.2914 12.9176 60.1724C13.3581 60.6129 13.9354 60.8332 14.5126 60.8332C15.0898 60.8332 15.6673 60.6131 16.1077 60.1724L18.2724 58.0077L20.4371 60.1724C20.8776 60.6129 21.455 60.8332 22.0322 60.8332C22.6094 60.8332 23.1869 60.6131 23.6272 60.1724C24.5082 59.2914 24.5082 57.8632 23.6272 56.9822L21.4628 54.8175Z" fill="#DCF5FA"/>
<path d="M53.6895 77C40.8359 77 30.3789 66.5429 30.3789 53.6895C30.3789 40.836 40.8359 30.3789 53.6895 30.3789C66.543 30.3789 77 40.836 77 53.6895C77 66.5429 66.543 77 53.6895 77Z" fill="#FFCC01"/>
<path d="M58.9531 60.457H48.4258C47.1799 60.457 46.1699 59.447 46.1699 58.2012C46.1699 56.9553 47.1799 55.9453 48.4258 55.9453H58.9531C60.199 55.9453 61.209 56.9553 61.209 58.2012C61.209 59.447 60.199 60.457 58.9531 60.457Z" fill="white"/>
<path d="M58.9531 51.4336H48.4258C47.1799 51.4336 46.1699 50.4236 46.1699 49.1777C46.1699 47.9319 47.1799 46.9219 48.4258 46.9219H58.9531C60.199 46.9219 61.209 47.9319 61.209 49.1777C61.209 50.4236 60.199 51.4336 58.9531 51.4336Z" fill="white"/>
</svg>
