<svg width="91" height="90" viewBox="0 0 91 90" fill="none" xmlns="http://www.w3.org/2000/svg">
<path d="M66.3995 21.6753C66.3995 27.632 64.2634 32.788 60.0494 37.0026C55.8355 41.2166 50.6788 43.3527 44.7221 43.3527H44.7118C38.7627 43.3507 33.6095 41.2145 29.3955 37.0026C25.1809 32.788 23.0454 27.632 23.0454 21.6753C23.0454 15.7207 25.1809 10.564 29.3955 6.3501C33.6074 2.13753 38.7607 0.00205995 44.7118 0H44.7221C50.6767 0 55.8334 2.13615 60.0494 6.3501C64.2634 10.564 66.3995 15.7207 66.3995 21.6753Z" fill="#FFBB85"/>
<path d="M82.8345 74.5215C82.8345 79.2209 81.3396 83.0256 78.3953 85.8278C75.4853 88.597 71.6366 89.9998 66.9572 89.9998H23.6216C18.9421 89.9998 15.0934 88.597 12.1855 85.8278C9.23911 83.0235 7.74634 79.2195 7.74634 74.5215C7.74634 72.7142 7.80608 70.9262 7.92555 69.2068C8.04709 67.449 8.29291 65.536 8.65546 63.518C9.02075 61.4835 9.49042 59.5602 10.0528 57.8024C10.6364 55.9827 11.4261 54.1879 12.4032 52.4685C13.418 50.6839 14.61 49.1293 15.9463 47.8494C17.347 46.5098 19.0595 45.4338 21.0391 44.6497C23.0118 43.8696 25.1988 43.4741 27.5389 43.4741C28.4569 43.4741 29.3461 43.8497 31.06 44.9662C32.1326 45.6659 33.3685 46.4624 34.7329 47.3344C35.9112 48.0856 37.5069 48.7901 39.4797 49.4267C41.2134 49.9876 42.9733 50.3008 44.7119 50.355C44.9035 50.3619 45.095 50.3653 45.2866 50.3653C47.2175 50.3653 49.1703 50.0488 51.0956 49.4267C53.0684 48.7901 54.6662 48.0856 55.8438 47.3344C57.2226 46.4535 58.4585 45.6577 59.5153 44.9683C61.2305 43.8497 62.1184 43.4741 63.0385 43.4741C65.3765 43.4741 67.5635 43.8696 69.5376 44.6497C71.5172 45.4338 73.2297 46.5118 74.629 47.8494C75.9673 49.1293 77.1593 50.6839 78.1735 52.4685C79.1513 54.1892 79.9423 55.9827 80.5239 57.8003C81.0869 59.5602 81.558 61.4835 81.9233 63.5194C82.2838 65.5395 82.5303 67.4525 82.6511 69.2055C82.7727 70.9193 82.8324 72.7074 82.8345 74.5215Z" fill="#EF0202"/>
<path d="M44.7222 43.3527H44.7119V0H44.7222C50.6768 0 55.8335 2.13615 60.0495 6.3501C64.2635 10.564 66.3996 15.7207 66.3996 21.6753C66.3996 27.632 64.2635 32.788 60.0495 37.0026C55.8356 41.2166 50.6789 43.3527 44.7222 43.3527Z" fill="#F5A86C"/>
<path d="M82.8345 74.5215C82.8345 79.2209 81.3396 83.0256 78.3953 85.8278C75.4853 88.597 71.6367 89.9998 66.9572 89.9998H44.7119V50.355C44.9035 50.3619 45.0951 50.3653 45.2866 50.3653C47.2175 50.3653 49.1703 50.0488 51.0957 49.4267C53.0684 48.7901 54.6662 48.0856 55.8438 47.3344C57.2226 46.4535 58.4586 45.6577 59.5153 44.9683C61.2305 43.8497 62.1184 43.4741 63.0385 43.4741C65.3765 43.4741 67.5635 43.8696 69.5376 44.6497C71.5172 45.4338 73.2297 46.5118 74.6291 47.8494C75.9673 49.1293 77.1593 50.6839 78.1735 52.4685C79.1513 54.1892 79.9423 55.9827 80.5239 57.8003C81.087 59.5602 81.558 61.4835 81.9233 63.5194C82.2838 65.5395 82.5303 67.4525 82.6511 69.2055C82.7727 70.9193 82.8324 72.7074 82.8345 74.5215Z" fill="#FF2929"/>
</svg>
